<?xml version="1.0" encoding="iso-8859-1"?>
<!-- Generator: Adobe Illustrator 19.0.0, SVG Export Plug-In . SVG Version: 6.00 Build 0)  -->
<svg version="1.1" id="Layer_1" xmlns="http://www.w3.org/2000/svg" xmlns:xlink="http://www.w3.org/1999/xlink" x="0px" y="0px"
	 viewBox="0 0 504.32 504.32" style="enable-background:new 0 0 504.32 504.32;" xml:space="preserve">
<path style="fill:#AAB1BA;" d="M260.267,436.907c-7.68,1.707-16.213,3.413-25.6,3.413c-51.2,0-76.8-34.133-76.8-34.133
	c0-34.133-34.133-34.133-34.133-34.133h-0.853H64c-33.28,0-59.733-26.453-59.733-59.733c0-28.16,19.627-51.2,45.227-58.027
	C42.667,240.64,38.4,226.134,38.4,209.92c0-52.053,41.813-93.867,93.867-93.867c18.773,0,35.84,5.12,51.2,15.36
	c17.92-48.64,64.853-83.627,119.467-83.627c70.827,0,128,57.173,128,128c0,4.267,0,7.68-0.853,11.947
	c40.107,11.093,69.12,46.933,69.12,90.453c0,52.053-41.813,93.867-93.867,93.867H345.6c0,0-34.133,0-34.133,34.133
	C311.467,406.187,294.4,429.227,260.267,436.907"/>
<path style="fill:#51565F;" d="M311.467,461.653c-2.56,0-4.267-1.707-4.267-4.267V440.32c0-2.56,1.707-4.267,4.267-4.267
	s4.267,1.707,4.267,4.267v17.067C315.733,459.947,314.027,461.653,311.467,461.653z M209.067,461.653
	c-2.56,0-4.267-1.707-4.267-4.267V440.32c0-2.56,1.707-4.267,4.267-4.267s4.267,1.707,4.267,4.267v17.067
	C213.333,459.947,211.627,461.653,209.067,461.653z M260.267,444.587c-2.56,0-4.267-1.707-4.267-4.267v-17.067
	c0-2.56,1.707-4.267,4.267-4.267s4.267,1.707,4.267,4.267v17.067C264.533,442.88,262.827,444.587,260.267,444.587z M157.867,427.52
	c-2.56,0-4.267-1.707-4.267-4.267v-17.067c0-29.013-29.013-29.867-29.867-29.867H64c-34.987,0-64-29.013-64-64s29.013-64,64-64
	c2.56,0,4.267,1.707,4.267,4.267c0,2.56-1.707,4.267-4.267,4.267c-30.72,0-55.467,24.747-55.467,55.467S33.28,367.787,64,367.787
	h59.733c13.653,0,38.4,7.68,38.4,38.4v17.067C162.133,425.813,160.427,427.52,157.867,427.52z M311.467,410.453
	c-2.56,0-4.267-1.707-4.267-4.267c0-30.72,24.747-38.4,38.4-38.4h59.733c49.493,0,89.6-40.107,89.6-89.6
	c0-29.013-14.507-56.32-37.547-73.387c-1.707-1.707-2.56-4.267-0.853-5.973s4.267-2.56,5.973-0.853
	c25.6,18.773,41.813,48.64,41.813,80.213c0,53.76-44.373,98.133-98.133,98.133h-59.733c-0.853,0-29.867,0.853-29.867,29.867
	C315.733,408.747,314.027,410.453,311.467,410.453z M209.067,410.453c-2.56,0-4.267-1.707-4.267-4.267V389.12
	c0-2.56,1.707-4.267,4.267-4.267s4.267,1.707,4.267,4.267v17.067C213.333,408.747,211.627,410.453,209.067,410.453z
	 M260.267,393.387c-2.56,0-4.267-1.707-4.267-4.267v-17.067c0-2.56,1.707-4.267,4.267-4.267s4.267,1.707,4.267,4.267v17.067
	C264.533,391.68,262.827,393.387,260.267,393.387z M209.067,359.253c-2.56,0-4.267-1.707-4.267-4.267V337.92
	c0-2.56,1.707-4.267,4.267-4.267s4.267,1.707,4.267,4.267v17.067C213.333,357.547,211.627,359.253,209.067,359.253z M40.107,231.253
	c-1.707,0-3.413-1.707-4.267-3.413c-0.853-5.973-1.707-11.947-1.707-17.92c0-53.76,44.373-98.133,98.133-98.133
	c27.307,0,52.053,11.093,70.827,30.72c1.707,1.707,1.707,4.267,0,5.973c-1.707,1.707-4.267,1.707-5.973,0
	c-17.067-17.92-40.107-28.16-64.853-28.16c-49.493,0-89.6,40.107-89.6,89.6c0,5.12,0.853,11.093,1.707,16.213
	C44.373,228.693,42.667,230.4,40.107,231.253L40.107,231.253z M426.667,214.187h-0.853c-2.56-0.853-3.413-2.56-2.56-5.12
	c2.56-11.093,4.267-22.187,4.267-33.28c0-68.267-55.467-123.733-123.733-123.733c-40.96,0-79.36,20.48-102.4,54.613
	c-1.707,1.707-4.267,2.56-5.973,0.853c-1.707-1.707-2.56-4.267-0.853-5.973c24.747-36.693,65.707-58.88,110.08-58.88
	c72.533,0,132.267,59.733,132.267,132.267c0,11.947-1.707,23.893-5.12,34.987C430.08,213.333,428.373,214.187,426.667,214.187z
	 M75.093,197.12H74.24c-2.56-0.853-3.413-3.413-2.56-5.12c4.267-13.653,12.8-25.6,24.747-34.133
	c1.707-1.707,4.267-0.853,5.973,0.853c1.707,1.707,0.853,4.267-0.853,5.973c-10.24,6.827-17.92,17.92-21.333,29.867
	C78.507,196.267,76.8,197.12,75.093,197.12z M396.8,180.053c-2.56,0-4.267-1.707-4.267-4.267c0-17.067-5.12-34.133-14.507-48.64
	c-1.707-1.707-0.853-4.267,0.853-5.973c1.707-1.707,4.267-0.853,5.973,0.853c10.24,16.213,16.213,34.133,16.213,53.76
	C401.067,178.347,399.36,180.053,396.8,180.053z"/>
<g>
</g>
<g>
</g>
<g>
</g>
<g>
</g>
<g>
</g>
<g>
</g>
<g>
</g>
<g>
</g>
<g>
</g>
<g>
</g>
<g>
</g>
<g>
</g>
<g>
</g>
<g>
</g>
<g>
</g>
</svg>
