<?xml version="1.0" encoding="iso-8859-1"?>
<!-- Generator: Adobe Illustrator 19.0.0, SVG Export Plug-In . SVG Version: 6.00 Build 0)  -->
<svg version="1.1" id="Capa_1" xmlns="http://www.w3.org/2000/svg" xmlns:xlink="http://www.w3.org/1999/xlink" x="0px" y="0px"
	 viewBox="0 0 463 463" style="enable-background:new 0 0 463 463;" xml:space="preserve">
<g>
	<path d="M461.396,117.137c-7.246-41.73-40.207-75.175-82.018-83.223c-20.01-3.849-40.266-1.832-58.94,5.825
		C297.743,14.412,265.645,0,231.493,0c-40.668,0-78.562,20.88-100.479,54.93c-16.918-6.831-35.234-8.654-53.379-5.26
		C37.193,57.234,5.552,91.007,0.691,131.799c-2.721,22.837,2.728,45.811,15.341,64.689c3.704,5.543,9.501,9.194,15.961,10.212v24.8
		c0,4.143,3.357,7.5,7.5,7.5s7.5-3.357,7.5-7.5V207h33v248.5c0,4.143,3.357,7.5,7.5,7.5s7.5-3.357,7.5-7.5V207h33v24.5
		c0,4.143,3.357,7.5,7.5,7.5s7.5-3.357,7.5-7.5V207h33v248.5c0,4.143,3.357,7.5,7.5,7.5s7.5-3.357,7.5-7.5V207h33v24.5
		c0,4.143,3.357,7.5,7.5,7.5s7.5-3.357,7.5-7.5V207h33v248.5c0,4.143,3.357,7.5,7.5,7.5s7.5-3.357,7.5-7.5V207h33v24.5
		c0,4.143,3.357,7.5,7.5,7.5s7.5-3.357,7.5-7.5V207h33v248.5c0,4.143,3.357,7.5,7.5,7.5s7.5-3.357,7.5-7.5V207h33v24.5
		c0,4.143,3.357,7.5,7.5,7.5s7.5-3.357,7.5-7.5v-25.813c4.424-1.539,8.386-4.372,11.268-8.207
		C459.592,174.42,466.388,145.887,461.396,117.137z M430.27,188.469c-1.662,2.211-4.262,3.531-6.955,3.531H35.683
		c-2.887,0-5.57-1.438-7.179-3.846c-10.783-16.139-15.25-35.013-12.919-54.58c4.094-34.349,30.743-62.789,64.808-69.16
		c5.015-0.938,10.043-1.403,15.041-1.403c12.172,0,24.157,2.763,35.284,8.198c3.563,1.741,7.867,0.407,9.819-3.046
		C159.091,35.371,193.943,15,231.493,15c31.544,0,61.087,14.065,81.055,38.591c2.184,2.682,5.916,3.521,9.038,2.038
		c17.198-8.181,36.202-10.597,54.957-6.984c35.728,6.876,63.889,35.433,70.074,71.059
		C450.893,144.331,445.087,168.753,430.27,188.469z"/>
	<path d="M39.493,304c-4.143,0-7.5,3.357-7.5,7.5v80c0,4.143,3.357,7.5,7.5,7.5s7.5-3.357,7.5-7.5v-80
		C46.993,307.357,43.635,304,39.493,304z"/>
	<path d="M39.493,256c-4.143,0-7.5,3.357-7.5,7.5v16c0,4.143,3.357,7.5,7.5,7.5s7.5-3.357,7.5-7.5v-16
		C46.993,259.357,43.635,256,39.493,256z"/>
	<path d="M39.493,416c-4.143,0-7.5,3.357-7.5,7.5v32c0,4.143,3.357,7.5,7.5,7.5s7.5-3.357,7.5-7.5v-32
		C46.993,419.357,43.635,416,39.493,416z"/>
	<path d="M231.493,304c-4.143,0-7.5,3.357-7.5,7.5v80c0,4.143,3.357,7.5,7.5,7.5s7.5-3.357,7.5-7.5v-80
		C238.993,307.357,235.635,304,231.493,304z"/>
	<path d="M231.493,256c-4.143,0-7.5,3.357-7.5,7.5v16c0,4.143,3.357,7.5,7.5,7.5s7.5-3.357,7.5-7.5v-16
		C238.993,259.357,235.635,256,231.493,256z"/>
	<path d="M231.493,416c-4.143,0-7.5,3.357-7.5,7.5v32c0,4.143,3.357,7.5,7.5,7.5s7.5-3.357,7.5-7.5v-32
		C238.993,419.357,235.635,416,231.493,416z"/>
	<path d="M135.493,304c-4.143,0-7.5,3.357-7.5,7.5v80c0,4.143,3.357,7.5,7.5,7.5s7.5-3.357,7.5-7.5v-80
		C142.993,307.357,139.635,304,135.493,304z"/>
	<path d="M135.493,256c-4.143,0-7.5,3.357-7.5,7.5v16c0,4.143,3.357,7.5,7.5,7.5s7.5-3.357,7.5-7.5v-16
		C142.993,259.357,139.635,256,135.493,256z"/>
	<path d="M135.493,416c-4.143,0-7.5,3.357-7.5,7.5v32c0,4.143,3.357,7.5,7.5,7.5s7.5-3.357,7.5-7.5v-32
		C142.993,419.357,139.635,416,135.493,416z"/>
	<path d="M423.493,304c-4.143,0-7.5,3.357-7.5,7.5v80c0,4.143,3.357,7.5,7.5,7.5s7.5-3.357,7.5-7.5v-80
		C430.993,307.357,427.635,304,423.493,304z"/>
	<path d="M423.493,256c-4.143,0-7.5,3.357-7.5,7.5v16c0,4.143,3.357,7.5,7.5,7.5s7.5-3.357,7.5-7.5v-16
		C430.993,259.357,427.635,256,423.493,256z"/>
	<path d="M423.493,416c-4.143,0-7.5,3.357-7.5,7.5v32c0,4.143,3.357,7.5,7.5,7.5s7.5-3.357,7.5-7.5v-32
		C430.993,419.357,427.635,416,423.493,416z"/>
	<path d="M327.493,304c-4.143,0-7.5,3.357-7.5,7.5v80c0,4.143,3.357,7.5,7.5,7.5s7.5-3.357,7.5-7.5v-80
		C334.993,307.357,331.635,304,327.493,304z"/>
	<path d="M327.493,256c-4.143,0-7.5,3.357-7.5,7.5v16c0,4.143,3.357,7.5,7.5,7.5s7.5-3.357,7.5-7.5v-16
		C334.993,259.357,331.635,256,327.493,256z"/>
	<path d="M327.493,416c-4.143,0-7.5,3.357-7.5,7.5v32c0,4.143,3.357,7.5,7.5,7.5s7.5-3.357,7.5-7.5v-32
		C334.993,419.357,331.635,416,327.493,416z"/>
</g>
<g>
</g>
<g>
</g>
<g>
</g>
<g>
</g>
<g>
</g>
<g>
</g>
<g>
</g>
<g>
</g>
<g>
</g>
<g>
</g>
<g>
</g>
<g>
</g>
<g>
</g>
<g>
</g>
<g>
</g>
</svg>
