<?xml version="1.0" encoding="iso-8859-1"?>
<!-- Generator: Adobe Illustrator 19.0.0, SVG Export Plug-In . SVG Version: 6.00 Build 0)  -->
<svg version="1.1" id="Layer_1" xmlns="http://www.w3.org/2000/svg" xmlns:xlink="http://www.w3.org/1999/xlink" x="0px" y="0px"
	 viewBox="0 0 504.32 504.32" style="enable-background:new 0 0 504.32 504.32;" xml:space="preserve">
<g transform="translate(1 9)">
	<path style="fill:#AAB1BA;" d="M127,149.293c1.707,0,2.56,0,4.267,0c18.773,0,35.84,5.973,51.2,15.36
		c2.56-6.827,5.12-12.8,8.533-18.773c1.707-2.56,2.56-5.12,4.267-6.827c1.707-2.56,3.413-5.12,5.973-7.68
		c4.267-5.973,9.387-11.093,15.36-16.213c1.707-1.707,3.413-2.56,5.12-4.267c2.56-1.707,5.12-4.267,7.68-5.973l0,0
		c20.48-14.507,46.08-23.04,72.533-23.04c70.827,0,128,57.173,128,128c0,4.267,0,7.68-0.853,11.947
		c40.107,11.093,69.12,46.933,69.12,90.453c0,52.053-41.813,93.867-93.867,93.867H344.6H122.733H63
		c-33.28,0-59.733-26.453-59.733-59.733c0-28.16,19.627-51.2,45.227-58.027c-6.827-13.653-11.093-28.16-11.093-44.373
		c0-29.867,14.507-57.173,36.693-74.24l0,0c10.24-7.68,21.333-13.653,34.133-17.067c2.56-0.853,5.12-0.853,7.68-1.707
		c2.56-0.853,5.973-0.853,8.533-0.853C125.293,149.293,126.147,149.293,127,149.293"/>
	<path style="fill:#FFE079;" d="M229.4,104.067L229.4,104.067c-2.56,1.707-5.12,4.267-7.68,5.973
		c-1.707,1.707-3.413,2.56-5.12,4.267c-5.12,5.12-11.093,10.24-15.36,16.213c-1.707,2.56-4.267,5.12-5.973,7.68
		s-3.413,4.267-4.267,6.827c-3.413,5.973-6.827,12.8-9.387,18.773c-14.507-9.387-32.427-15.36-51.2-15.36c-1.707,0-2.56,0-4.267,0
		c-0.853,0-1.707,0-3.413,0c-3.413,0-5.973,0.853-8.533,0.853c-2.56,0-5.12,0.853-7.68,1.707
		c-12.8,3.413-23.893,8.533-34.133,16.213c-1.707-5.973-2.56-12.8-2.56-19.627c0-46.933,38.4-85.333,85.333-85.333
		C187.587,63.96,214.04,80.173,229.4,104.067"/>
</g>
<path style="fill:#51565F;" d="M192,503.893c-0.853,0-0.853,0-1.707,0c-2.56-0.853-3.413-3.413-2.56-5.973l48.64-113.493h-61.44
	c-1.707,0-2.56-0.853-3.413-1.707c-0.853-0.853-0.853-2.56,0-4.267l51.2-119.467c0.853-2.56,3.413-3.413,5.973-2.56
	c2.56,0.853,3.413,3.413,2.56,5.973l-48.64,113.493h61.44c1.707,0,2.56,0.853,3.413,1.707c0.853,0.853,0.853,2.56,0,4.267
	l-51.2,119.467C195.413,503.04,193.707,503.893,192,503.893z M285.867,486.827c-0.853,0-1.707,0-2.56-0.853
	c-1.707-0.853-2.56-4.267-1.707-5.973l38.4-61.44h-43.52c-1.707,0-2.56-0.853-3.413-1.707c-0.853-0.853-0.853-2.56-0.853-4.267
	l25.6-68.267c0.853-2.56,3.413-3.413,5.12-2.56c2.56,0.853,3.413,3.413,2.56,5.12l-23.04,62.293h45.227
	c1.707,0,2.56,0.853,3.413,2.56c0.853,1.707,0.853,3.413,0,4.267l-42.667,68.267C288.427,485.973,287.573,486.827,285.867,486.827z
	 M405.333,418.56h-42.667c-2.56,0-4.267-1.707-4.267-4.267c0-2.56,1.707-4.267,4.267-4.267h42.667c49.493,0,89.6-40.107,89.6-89.6
	c0-29.013-14.507-56.32-37.547-73.387c-1.707-1.707-2.56-4.267-0.853-5.973s4.267-2.56,5.973-0.853
	c25.6,18.773,41.813,48.64,41.813,80.213C503.467,374.187,459.093,418.56,405.333,418.56z M192,418.56H64c-34.987,0-64-29.013-64-64
	s29.013-64,64-64c2.56,0,4.267,1.707,4.267,4.267c0,2.56-1.707,4.267-4.267,4.267c-30.72,0-55.467,24.747-55.467,55.467
	S33.28,410.027,64,410.027h128c2.56,0,4.267,1.707,4.267,4.267C196.267,416.853,194.56,418.56,192,418.56z M40.107,273.493
	c-1.707,0-3.413-1.707-4.267-3.413c-0.853-5.973-1.707-11.947-1.707-17.92c0-53.76,44.373-98.133,98.133-98.133
	c27.307,0,52.053,11.093,70.827,30.72c1.707,1.707,1.707,4.267,0,5.973c-1.707,1.707-4.267,1.707-5.973,0
	c-17.067-17.92-40.107-28.16-64.853-28.16c-49.493,0-89.6,40.107-89.6,89.6c0,5.12,0.853,11.093,1.707,16.213
	C44.373,270.933,42.667,272.64,40.107,273.493L40.107,273.493z M426.667,256.427h-0.853c-2.56-0.853-3.413-2.56-2.56-5.12
	c2.56-11.093,4.267-22.187,4.267-33.28c0-68.267-55.467-123.733-123.733-123.733c-40.96,0-79.36,20.48-102.4,54.613
	c-1.707,1.707-4.267,2.56-5.973,0.853c-1.707-1.707-2.56-4.267-0.853-5.973c24.747-36.693,65.707-58.88,110.08-58.88
	c72.533,0,132.267,59.733,132.267,132.267c0,11.947-1.707,23.893-5.12,34.987C430.08,255.573,428.373,256.427,426.667,256.427z
	 M75.093,239.36H74.24c-2.56-0.853-3.413-3.413-2.56-5.12c4.267-13.653,12.8-25.6,24.747-34.133
	c1.707-1.707,4.267-0.853,5.973,0.853c1.707,1.707,0.853,4.267-0.853,5.973c-10.24,6.827-17.92,17.92-21.333,29.867
	C78.507,238.507,76.8,239.36,75.093,239.36z M396.8,222.293c-2.56,0-4.267-1.707-4.267-4.267c0-17.067-5.12-34.133-14.507-48.64
	c-1.707-1.707-0.853-4.267,0.853-5.973c1.707-1.707,4.267-0.853,5.973,0.853c10.24,16.213,16.213,34.133,16.213,53.76
	C401.067,220.587,399.36,222.293,396.8,222.293z M38.4,162.56H4.267c-2.56,0-4.267-1.707-4.267-4.267s1.707-4.267,4.267-4.267H38.4
	c2.56,0,4.267,1.707,4.267,4.267S40.96,162.56,38.4,162.56z M74.24,145.493h-0.853c-2.56-0.853-3.413-2.56-3.413-5.12
	c8.533-41.813,45.227-71.68,87.893-71.68c19.627,0,38.4,5.973,53.76,17.92c1.707,1.707,2.56,4.267,0.853,5.973
	c-1.707,1.707-4.267,2.56-5.973,0.853C192,83.2,175.787,77.227,157.867,77.227c-38.4,0-71.68,27.307-79.36,64.853
	C77.653,143.787,75.947,145.493,74.24,145.493z M47.787,116.48c-0.853,0-0.853,0-1.707,0l-15.36-6.827
	c-2.56-0.853-3.413-3.413-2.56-5.973c0.853-2.56,3.413-3.413,5.973-2.56l15.36,6.827c2.56,0.853,3.413,3.413,2.56,5.973
	C50.347,115.627,49.493,116.48,47.787,116.48z M242.347,78.08c-0.853,0-2.56,0-3.413-0.853c-1.707-1.707-1.707-4.267,0-5.973
	l23.893-23.893c1.707-1.707,4.267-1.707,5.973,0s1.707,4.267,0,5.973l-23.893,23.893C244.907,78.08,243.2,78.08,242.347,78.08z
	 M73.387,78.08c-0.853,0-2.56,0-3.413-0.853L46.08,53.333c-1.707-1.707-1.707-4.267,0-5.973s4.267-1.707,5.973,0l23.893,23.893
	c1.707,1.707,1.707,4.267,0,5.973C75.947,78.08,74.24,78.08,73.387,78.08z M203.947,52.48c-0.853,0-0.853,0-1.707,0
	c-2.56-0.853-3.413-3.413-2.56-5.973l6.827-15.36c0.853-2.56,3.413-3.413,5.973-2.56c2.56,0.853,3.413,3.413,2.56,5.973
	l-6.827,15.36C206.507,50.773,205.653,52.48,203.947,52.48z M111.787,52.48c-1.707,0-3.413-0.853-4.267-2.56l-6.827-15.36
	c-0.853-2.56,0-4.267,2.56-5.973c2.56-0.853,4.267,0,5.973,2.56l6.827,15.36c0.853,2.56,0,4.267-2.56,5.973
	C113.493,52.48,112.64,52.48,111.787,52.48z M157.867,43.093c-2.56,0-4.267-1.707-4.267-4.267V4.693c0-2.56,1.707-4.267,4.267-4.267
	c2.56,0,4.267,1.707,4.267,4.267v34.133C162.133,41.387,160.427,43.093,157.867,43.093z"/>
<g>
</g>
<g>
</g>
<g>
</g>
<g>
</g>
<g>
</g>
<g>
</g>
<g>
</g>
<g>
</g>
<g>
</g>
<g>
</g>
<g>
</g>
<g>
</g>
<g>
</g>
<g>
</g>
<g>
</g>
</svg>
