<?xml version="1.0" encoding="iso-8859-1"?>
<!-- Generator: Adobe Illustrator 19.0.0, SVG Export Plug-In . SVG Version: 6.00 Build 0)  -->
<svg version="1.1" id="Layer_1" xmlns="http://www.w3.org/2000/svg" xmlns:xlink="http://www.w3.org/1999/xlink" x="0px" y="0px"
	 viewBox="0 0 508.4 508.4" style="enable-background:new 0 0 508.4 508.4;" xml:space="preserve">
<path style="fill:#FFC52F;" d="M254.4,422.8c92.8,0,168.4-75.6,168.4-168.4S347.2,86,254.4,86S86,161.6,86,254.4
	S161.2,422.8,254.4,422.8z"/>
<g>
	<path style="fill:#FF9999;" d="M12.4,266.4c-0.4,0-1.2,0-1.6,0C11.2,266.4,11.6,266.4,12.4,266.4z"/>
	<path style="fill:#FF9999;" d="M53.6,266.4c-0.4,0-1.2,0-1.6,0C52.8,266.4,53.2,266.4,53.6,266.4z"/>
	<path style="fill:#FF9999;" d="M6.4,258.4c0,3.2,2.8,4,6,4h40c3.2,0,6-0.8,6-4s-2.8-4-6-4h-40C9.2,254.4,6.4,255.2,6.4,258.4z"/>
	<path style="fill:#FF9999;" d="M450.8,258.4c0,3.2,2.8,4,6,4h40c3.2,0,6-0.8,6-4s-2.8-4-6-4h-40
		C453.2,254.4,450.8,255.2,450.8,258.4z"/>
	<path style="fill:#FF9999;" d="M242,456.8c0-0.4,0-1.2,0-1.6C242.4,455.6,242,456,242,456.8z"/>
	<path style="fill:#FF9999;" d="M250.4,450.8c-3.2,0-4,2.8-4,6v40c0,3.2,0.8,6,4,6s4-2.8,4-6v-40
		C254.4,453.2,253.6,450.8,250.4,450.8z"/>
	<path style="fill:#FF9999;" d="M242.4,498c0-0.4,0-1.2,0-1.6C242,497.2,242.4,497.6,242.4,498z"/>
	<path style="fill:#FF9999;" d="M250.4,6.4c-3.2,0-4,2.8-4,6v40c0,3.2,0.8,6,4,6s4-2.8,4-6v-40C254.4,9.2,253.6,6.4,250.4,6.4z"/>
	<path style="fill:#FF9999;" d="M242,12.4c0-0.4,0-1.2,0-1.6C242.4,11.2,242,11.6,242,12.4z"/>
	<path style="fill:#FF9999;" d="M242,52c0,0.4,0,1.2,0,1.6C242.4,53.2,242,52.8,242,52z"/>
</g>
<g>
	<path style="fill:#EFDC81;" d="M87.6,429.6l28-28c1.2-1.2,1.6-2.8,1.6-4.4s-0.8-3.2-1.6-4.4c-1.2-1.2-2.8-1.6-4.4-1.6
		s-3.2,0.8-4.4,1.6l-28,28c-1.2,1.2-1.6,2.8-1.6,4.4s0.8,3.2,1.6,4.4C81.2,432,85.2,432,87.6,429.6z"/>
	<path style="fill:#EFDC81;" d="M401.6,115.6l28-28c1.2-1.2,1.6-2.8,1.6-4.4s-0.8-3.2-1.6-4c-1.2-1.2-2.8-1.6-4.4-1.6
		c-1.6,0-3.2,0.8-4,1.6l-28,28c-2.4,2.4-2.4,6,0,8.4S399.2,118,401.6,115.6z"/>
	<path style="fill:#EFDC81;" d="M397.6,391.6c-1.6,0-3.2,0.8-4.4,1.6c-2.4,2.4-2.4,6,0,8.4l28,28c2.4,2.4,6,2.4,8.4,0
		c1.2-1.2,1.6-2.8,1.6-4.4s-0.8-3.2-1.6-4.4l-28-28C400.4,392,398.8,391.6,397.6,391.6z"/>
	<path style="fill:#EFDC81;" d="M107.2,115.6c2.4,2.4,6,2.4,8.4,0c1.2-1.2,1.6-2.8,1.6-4.4s-0.8-3.2-1.6-4.4l-28-28
		c-1.2-1.2-2.8-1.6-4.4-1.6S80,78,78.8,78.8c-1.2,1.2-1.6,2.8-1.6,4.4s0.8,3.2,1.6,4.4L107.2,115.6z"/>
	<path style="fill:#EFDC81;" d="M177.2,435.2c-2.4,0-4.4,1.6-5.6,3.6l-15.2,36.8c-0.8,1.6-0.8,3.2,0,4.4c0.8,1.6,1.6,2.8,3.2,3.2
		c2.8,1.2,6.4-0.4,7.6-3.2l15.2-36.8c1.2-3.2,0-6.4-3.2-7.6C178.4,435.6,177.6,435.2,177.2,435.2z"/>
	<path style="fill:#EFDC81;" d="M329.6,73.2c2.8,1.2,6.4-0.4,7.6-3.2l15.2-36.8c1.2-3.2,0-6.4-3.2-7.6c-0.8-0.4-1.6-0.4-2.4-0.4
		c-2.4,0-4.4,1.6-5.6,3.6L326,65.6c-0.8,1.6-0.8,3.2,0,4.4C326.8,71.2,328,72.4,329.6,73.2z"/>
	<path style="fill:#EFDC81;" d="M438.8,337.2l36.8,15.2c2.8,1.2,6.4-0.4,7.6-3.2c0.8-1.6,0.8-3.2,0-4.4s-1.6-2.8-3.2-3.2l-36.8-15.2
		c-0.8-0.4-1.6-0.4-2.4-0.4c-2.4,0-4.4,1.6-5.6,3.6C434.4,332.4,436,336,438.8,337.2z"/>
	<path style="fill:#EFDC81;" d="M28.4,167.2l36.8,15.2c2.8,1.2,6.4-0.4,7.6-3.2c1.2-3.2,0-6.4-3.2-7.6l-36.8-15.2
		c-0.8-0.4-1.6-0.4-2.4-0.4c-2.4,0-4.4,1.6-5.6,3.6C24,162.4,25.6,166,28.4,167.2z"/>
	<path style="fill:#EFDC81;" d="M331.6,435.2c-0.8,0-1.6,0-2.4,0.4c-3.2,1.2-4.4,4.8-3.2,7.6l15.2,36.8c1.2,2.8,4.8,4.4,7.6,3.2
		c1.6-0.8,2.8-1.6,3.2-3.2c0.8-1.6,0.8-3.2,0-4.4l-15.2-36.8C336.4,436.8,334.4,435.2,331.6,435.2z"/>
	<path style="fill:#EFDC81;" d="M171.6,70c1.2,2.8,4.8,4.4,7.6,3.2c1.6-0.8,2.8-1.6,3.2-3.2s0.8-3.2,0-4.4l-15.2-36.8
		c-0.8-2.4-3.2-3.6-5.6-3.6c-0.8,0-1.6,0-2.4,0.4c-3.2,1.2-4.4,4.8-3.2,7.6L171.6,70z"/>
	<path style="fill:#EFDC81;" d="M443.6,182.4l36.8-15.2c3.2-1.2,4.4-4.8,3.2-7.6c-0.8-2.4-3.2-3.6-5.6-3.6c-0.8,0-1.6,0-2.4,0.4
		l-36.8,15.2c-3.2,1.2-4.4,4.8-3.2,7.6C436.8,182.4,440.4,183.6,443.6,182.4z"/>
	<path style="fill:#EFDC81;" d="M67.6,326c-0.8,0-1.6,0-2.4,0.4l-36.8,15.2c-1.6,0.8-2.8,1.6-3.2,3.2c-0.8,1.6-0.8,3.2,0,4.4
		c1.2,2.8,4.8,4.4,7.6,3.2l36.8-15.2c1.6-0.8,2.8-1.6,3.2-3.2c0.8-1.6,0.8-3.2,0-4.4C72,327.2,70,326,67.6,326z"/>
</g>
<path d="M254.4,428.8C158,428.8,80,350.4,80,254.4S158.4,80,254.4,80c96.4,0,174.4,78.4,174.4,174.4S350.4,428.8,254.4,428.8z
	 M254.4,88C162.4,88,88,162.8,88,254.4c0,92,74.8,166.4,166.4,166.4S420.8,346,420.8,254.4S346,88,254.4,88z"/>
<path d="M52,268.4H12c-8.8,0-12-5.2-12-10s3.2-10,12-10h40c8.8,0,12,5.2,12,10S60.8,268.4,52,268.4z M12.4,256.4c-4,0-4,1.2-4,2
	s0,2,4,2h40c4,0,4-1.2,4-2s0-2-4-2H12.4z"/>
<path d="M496.4,268.4h-40c-8.8,0-12-5.2-12-10s3.2-10,12-10h40c8.8,0,12,5.2,12,10S505.2,268.4,496.4,268.4z M456.8,256.4
	c-4,0-4,1.2-4,2s0,2,4,2h40c4,0,4-1.2,4-2s0-2-4-2H456.8z"/>
<path d="M250.4,508.4c-4.8,0-10-3.2-10-12v-40c0-8.8,5.2-12,10-12s10,3.2,10,12v40C260.4,505.2,255.2,508.4,250.4,508.4z
	 M250.4,452.8c-0.8,0-2,0-2,4v40c0,4,1.2,4,2,4s2,0,2-4v-40C252.4,452.8,251.2,452.8,250.4,452.8z"/>
<path d="M250.4,64c-4.8,0-10-3.2-10-12V12c0-8.8,5.2-12,10-12s10,3.2,10,12v40C260.4,60.8,255.2,64,250.4,64z M250.4,8.4
	c-0.8,0-2,0-2,4v40c0,4,1.2,4,2,4s2,0,2-4v-40C252.4,8.4,251.2,8.4,250.4,8.4z"/>
<path d="M83.2,437.6c-3.2,0-6-1.2-8.4-3.6c-4.8-4.8-4.8-12.4,0-16.8l28-28c4.8-4.8,12.4-4.8,16.8,0c2.4,2.4,3.6,5.2,3.6,8.4
	c0,3.2-1.2,6-3.6,8.4l-28,28C89.2,436.4,86.4,437.6,83.2,437.6z M111.2,393.6c-1.2,0-2,0.4-2.8,1.2l-28,28c-1.6,1.6-1.6,4,0,5.6
	s4,1.6,5.6,0l28-28l0,0c0.8-0.8,1.2-1.6,1.2-2.8s-0.4-2-1.2-2.8C113.6,394,112.4,393.6,111.2,393.6z"/>
<path d="M397.6,123.2c-3.2,0-6-1.2-8.4-3.6c-4.8-4.8-4.8-12.4,0-16.8l28-28c4.4-4.4,12.4-4.4,16.8,0c2.4,2.4,3.6,5.2,3.6,8.4
	c0,3.2-1.2,6-3.6,8.4l-28,28C403.6,122,400.4,123.2,397.6,123.2z M425.6,79.2c-1.2,0-2,0.4-2.8,1.2l-28,28c-1.6,1.6-1.6,4,0,5.6
	s4,1.6,5.6,0l28-28l0,0c0.8-0.8,1.2-1.6,1.2-2.8s-0.4-2-1.2-2.8C427.6,79.6,426.8,79.2,425.6,79.2z"/>
<path d="M425.6,437.6c-3.2,0-6-1.2-8.4-3.6l-28-28c-4.8-4.8-4.8-12.4,0-16.8c4.8-4.8,12.4-4.8,16.8,0l0,0l28,28
	c4.8,4.8,4.8,12.4,0,16.8C431.6,436.4,428.8,437.6,425.6,437.6z M397.6,393.6c-1.2,0-2,0.4-2.8,1.2c-1.6,1.6-1.6,4,0,5.6l28,28
	c1.6,1.6,4,1.6,5.6,0s1.6-4,0-5.6l-28-28C399.6,394,398.4,393.6,397.6,393.6z"/>
<path d="M111.2,123.2c-3.2,0-6-1.2-8.4-3.6l-28-28c-2.4-2.4-3.6-5.2-3.6-8.4s1.2-6,3.6-8.4c2.4-2.4,5.2-3.6,8.4-3.6l0,0
	c3.2,0,6,1.2,8.4,3.6l28,28c2.4,2.4,3.6,5.2,3.6,8.4c0,3.2-1.2,6-3.6,8.4C117.6,122,114.4,123.2,111.2,123.2L111.2,123.2z
	 M83.2,79.2c-1.2,0-2,0.4-2.8,1.2c-0.8,0.8-1.2,1.6-1.2,2.8c0,1.2,0.4,2,1.2,2.8l28,28c0.8,0.8,1.6,1.2,2.8,1.2l0,0
	c1.2,0,2-0.4,2.8-1.2c0.8-0.8,1.2-1.6,1.2-2.8c0-1.2-0.4-2-1.2-2.8l-28-28l0,0C85.2,79.6,84.4,79.2,83.2,79.2L83.2,79.2z"/>
<path d="M161.6,490c-1.6,0-3.2-0.4-4.4-0.8c-2.8-1.2-5.2-3.6-6.4-6.4s-1.2-6,0-9.2l15.2-36.8c2.4-6,9.6-8.8,15.6-6.4
	s8.8,9.6,6.4,15.6l0,0l-15.2,36.8C170.8,487.2,166.4,490,161.6,490z M177.2,437.2c-1.6,0-3.2,0.8-3.6,2.4l-15.2,36.8
	c-0.4,0.8-0.4,2,0,3.2c0.4,0.8,1.2,1.6,2,2c2,0.8,4.4,0,5.2-2l15.2-36.8c0.8-2,0-4.4-2-5.2C178,437.6,177.6,437.2,177.2,437.2z"/>
<path d="M331.6,79.6c-1.6,0-3.2-0.4-4.4-0.8c-6-2.4-8.8-9.6-6.4-15.6L336,26.4c2.4-6,9.6-8.8,15.6-6.4c2.8,1.2,5.2,3.6,6.4,6.4
	s1.2,6,0,9.2l-15.2,36.8C340.8,76.8,336.4,79.6,331.6,79.6z M347.2,26.8c-1.6,0-3.2,0.8-3.6,2.4L328.4,66c-0.8,2,0,4.4,2,5.2
	c2,0.8,4.4,0,5.2-2l15.2-36.8l0,0c0.4-0.8,0.4-2,0-3.2c-0.4-0.8-1.2-1.6-2-2C348,26.8,347.6,26.8,347.2,26.8z"/>
<path d="M478,358.8c-1.6,0-3.2-0.4-4.4-0.8l-36.8-15.2c-2.8-1.2-5.2-3.6-6.4-6.4s-1.2-6,0-9.2s3.6-5.2,6.4-6.4c2.8-1.2,6-1.2,9.2,0
	l36.8,15.2c2.8,1.2,5.2,3.6,6.4,6.4c1.2,2.8,1.2,6,0,9.2s-3.6,5.2-6.4,6.4C481.2,358.8,479.6,358.8,478,358.8z M441.2,328
	c-0.4,0-1.2,0-1.6,0.4c-0.8,0.4-1.6,1.2-2,2s-0.4,2,0,3.2c0.4,0.8,1.2,1.6,2,2l36.8,15.2c0.8,0.4,2,0.4,3.2,0c0.8-0.4,1.6-1.2,2-2
	s0.4-2,0-3.2s-1.2-1.6-2-2l-36.8-15.2l0,0C442.4,328,441.6,328,441.2,328z"/>
<path d="M67.6,188.8c-1.6,0-3.2-0.4-4.4-0.8l-36.8-15.2c-6-2.4-8.8-9.6-6.4-15.6c2.4-6,9.6-8.8,15.6-6.4l0,0L72.4,166
	c2.8,1.2,5.2,3.6,6.4,6.4s1.2,6,0,9.2c-1.2,2.8-3.6,5.2-6.4,6.4C70.8,188.8,69.2,188.8,67.6,188.8z M30.8,158
	c-1.6,0-3.2,0.8-3.6,2.4c-0.8,2,0,4.4,2,5.2L66,180.8c0.8,0.4,2,0.4,3.2,0c0.8-0.4,1.6-1.2,2-2s0.4-2,0-3.2c-0.4-0.8-1.2-1.6-2-2
	l-36.8-15.2C31.6,158,31.2,158,30.8,158z"/>
<path d="M347.2,490c-4.8,0-9.2-2.8-11.2-7.2L320.8,446c-2.4-6,0.4-13.2,6.4-15.6s13.2,0.4,15.6,6.4l0,0l15.2,36.8
	c1.2,2.8,1.2,6,0,9.2c-1.2,2.8-3.6,5.2-6.4,6.4C350,489.6,348.4,490,347.2,490z M331.6,437.2c-0.4,0-1.2,0-1.6,0.4
	c-2,0.8-2.8,3.2-2,5.2l15.2,36.8c0.8,2,3.2,2.8,5.2,2c0.8-0.4,1.6-1.2,2-2s0.4-2,0-3.2l-15.2-36.8
	C334.8,438.4,333.2,437.2,331.6,437.2z"/>
<path d="M177.2,79.6c-4.8,0-9.2-2.8-11.2-7.2l-15.2-36.8c-1.2-2.8-1.2-6,0-9.2c1.2-2.8,3.6-5.2,6.4-6.4c2.8-1.2,6-1.2,9.2,0
	c2.8,1.2,5.2,3.6,6.4,6.4L188,63.2c2.4,6-0.4,13.2-6.4,15.6C180,79.2,178.4,79.6,177.2,79.6z M161.6,26.8c-0.4,0-1.2,0-1.6,0.4
	c-0.8,0.4-1.6,1.2-2,2s-0.4,2,0,3.2l15.2,36.8c0.8,2,3.2,2.8,5.2,2s2.8-3.2,2-5.2l-15.2-36.8l0,0c-0.4-0.8-1.2-1.6-2-2
	C162.8,26.8,162.4,26.8,161.6,26.8z"/>
<path d="M441.2,188.8c-1.6,0-3.2-0.4-4.4-0.8c-2.8-1.2-5.2-3.6-6.4-6.4c-2.4-6,0.4-13.2,6.4-15.6l0,0l36.8-15.2
	c6-2.4,13.2,0.4,15.6,6.4s-0.4,13.2-6.4,15.6L446,188C444.4,188.8,442.8,188.8,441.2,188.8z M439.6,173.2c-2,0.8-2.8,3.2-2,5.2
	c0.4,0.8,1.2,1.6,2,2s2,0.4,3.2,0l36.8-15.2c2-0.8,2.8-3.2,2-5.2s-3.2-2.8-5.2-2L439.6,173.2z"/>
<path d="M30.8,358.8c-4.8,0-9.2-2.8-11.2-7.2c-1.2-2.8-1.2-6,0-9.2c1.2-2.8,3.6-5.2,6.4-6.4l36.8-15.2c2.8-1.2,6-1.2,9.2,0
	s5.2,3.6,6.4,6.4s1.2,6,0,9.2s-3.6,5.2-6.4,6.4L35.2,358C34,358.8,32.4,358.8,30.8,358.8z M67.6,328c-0.4,0-1.2,0-1.6,0.4
	l-36.8,15.2l0,0c-0.8,0.4-1.6,1.2-2,2s-0.4,2,0,3.2c0.8,2,3.2,2.8,5.2,2l36.8-15.2c0.8-0.4,1.6-1.2,2-2s0.4-2,0-3.2
	c-0.4-0.8-1.2-1.6-2-2C68.4,328,68,328,67.6,328z"/>
<path d="M254.4,409.2c-85.2,0-154.8-69.2-154.8-154.8S168.8,99.6,254.4,99.6c35.6,0,68.8,11.6,96.4,33.6c1.6,1.2,2,4,0.8,5.6
	s-4,2-5.6,0.8c-26.4-20.8-58-32-91.6-32c-80.8,0-146.8,65.6-146.8,146.8s65.6,146.8,146.8,146.8s146.8-65.6,146.8-146.8
	c0-31.6-10-61.6-28.4-86.8c-1.2-1.6-0.8-4.4,0.8-5.6s4.4-0.8,5.6,0.8c19.6,26.8,30,58.4,30,91.6
	C408.8,339.6,339.6,409.2,254.4,409.2z"/>
<g>
</g>
<g>
</g>
<g>
</g>
<g>
</g>
<g>
</g>
<g>
</g>
<g>
</g>
<g>
</g>
<g>
</g>
<g>
</g>
<g>
</g>
<g>
</g>
<g>
</g>
<g>
</g>
<g>
</g>
</svg>
