<?xml version="1.0" encoding="iso-8859-1"?>
<!-- Generator: Adobe Illustrator 19.0.0, SVG Export Plug-In . SVG Version: 6.00 Build 0)  -->
<svg version="1.1" id="Layer_1" xmlns="http://www.w3.org/2000/svg" xmlns:xlink="http://www.w3.org/1999/xlink" x="0px" y="0px"
	 viewBox="0 0 503.787 503.787" style="enable-background:new 0 0 503.787 503.787;" xml:space="preserve">
<path style="fill:#FFE079;" d="M251.893,124.053c70.827,0,128,57.173,128,128s-57.173,128-128,128c-70.827,0-128-57.173-128-128
	S181.067,124.053,251.893,124.053"/>
<path style="fill:#51565F;" d="M149.493,503.787c-0.853,0-0.853,0-1.707,0c-1.707-0.853-2.56-2.56-2.56-4.267
	c0-0.853,0-0.853,0-1.707l14.507-34.987c0.853-2.56,3.413-3.413,5.973-2.56c1.707,0.853,2.56,2.56,2.56,4.267
	c0,0.853,0,0.853,0,1.707l-14.507,34.987C152.907,502.933,151.2,503.787,149.493,503.787z M354.293,502.933
	c-1.707,0-3.413-0.853-4.267-2.56L335.52,466.24c0-0.853,0-0.853,0-1.707c0-1.707,0.853-3.413,2.56-4.267
	c2.56-0.853,4.267,0,5.973,2.56l14.507,34.133c0,0.853,0,0.853,0,1.707c0,1.707-0.853,3.413-2.56,4.267
	C355.147,502.933,355.147,502.933,354.293,502.933z M251.893,486.72c-2.56,0-4.267-1.707-4.267-4.267v-68.267
	c0-2.56,1.707-4.267,4.267-4.267s4.267,1.707,4.267,4.267v68.267C256.16,485.013,254.453,486.72,251.893,486.72z M326.987,437.227
	c-1.707,0-3.413-0.853-4.267-2.56l-12.8-31.573c0-0.853,0-0.853,0-1.707c0-1.707,0.853-3.413,2.56-4.267
	c2.56-0.853,4.267,0,5.973,2.56l12.8,31.573c0,0.853,0,0.853,0,1.707c0,1.707-0.853,3.413-2.56,4.267
	C327.84,437.227,327.84,437.227,326.987,437.227z M176.8,437.227c-0.853,0-0.853,0-1.707,0c-1.707-0.853-2.56-2.56-2.56-4.267
	c0-0.853,0-0.853,0-1.707l12.8-31.573c0.853-2.56,3.413-3.413,5.973-2.56c1.707,0.853,2.56,2.56,2.56,4.267c0,0.853,0,0.853,0,1.707
	l-12.8,31.573C180.213,436.373,178.507,437.227,176.8,437.227z M92.32,420.16c-0.853,0-2.56,0-3.413-0.853s-0.853-1.707-0.853-3.413
	s0-2.56,0.853-3.413l48.64-48.64c1.707-1.707,4.267-1.707,5.973,0c0.853,0.853,0.853,1.707,0.853,3.413s0,2.56-0.853,3.413
	l-48.64,48.64C94.027,420.16,93.173,420.16,92.32,420.16z M417.44,420.16c-0.853,0-2.56,0-3.413-0.853l-48.64-48.64
	c-0.853-0.853-0.853-1.707-0.853-3.413s0-2.56,0.853-3.413c1.707-1.707,4.267-1.707,5.973,0L420,412.48
	c0.853,0.853,0.853,1.707,0.853,3.413s0,2.56-0.853,3.413C419.147,420.16,419.147,420.16,417.44,420.16z M251.893,384.32
	c-72.533,0-132.267-59.733-132.267-132.267s59.733-132.267,132.267-132.267S384.16,179.52,384.16,252.053
	S324.427,384.32,251.893,384.32z M251.893,128.32c-68.267,0-123.733,55.467-123.733,123.733s55.467,123.733,123.733,123.733
	s123.733-55.467,123.733-123.733S320.16,128.32,251.893,128.32z M499.36,358.72c-0.853,0-0.853,0-1.707,0l-34.987-14.507
	c-1.707-0.853-2.56-2.56-2.56-4.267c0-0.853,0-0.853,0-1.707c0.853-2.56,3.413-3.413,5.973-2.56l34.987,14.507
	c1.707,0.853,2.56,2.56,2.56,4.267c0,0.853,0,0.853,0,1.707C502.773,357.867,501.067,358.72,499.36,358.72z M4.427,358.72
	c-1.707,0-3.413-0.853-4.267-2.56c0-0.853,0-0.853,0-1.707c0-1.707,0.853-3.413,2.56-4.267l34.987-14.507
	c2.56-0.853,4.267,0,5.973,2.56c0,0.853,0,0.853,0,1.707c0,1.707-0.853,3.413-2.56,4.267L6.133,358.72
	C5.28,358.72,5.28,358.72,4.427,358.72z M432.8,331.413c-0.853,0-0.853,0-1.707,0l-31.573-12.8c-1.707-0.853-2.56-2.56-2.56-4.267
	c0-0.853,0-0.853,0-1.707c0.853-2.56,3.413-3.413,5.973-2.56l31.573,12.8c1.707,0.853,2.56,2.56,2.56,4.267c0,0.853,0,0.853,0,1.707
	C436.213,330.56,434.507,331.413,432.8,331.413z M70.987,331.413c-1.707,0-3.413-0.853-4.267-2.56c0-0.853,0-0.853,0-1.707
	c0-1.707,0.853-3.413,2.56-4.267l31.573-12.8c2.56-0.853,4.267,0,5.973,2.56c0,0.853,0,0.853,0,1.707
	c0,1.707-0.853,3.413-2.56,4.267l-31.573,12.8C71.84,331.413,70.987,331.413,70.987,331.413z M482.293,256.32h-68.267
	c-2.56,0-4.267-1.707-4.267-4.267c0-2.56,1.707-4.267,4.267-4.267h68.267c2.56,0,4.267,1.707,4.267,4.267
	C486.56,254.613,484.853,256.32,482.293,256.32z M89.76,256.32H21.493c-2.56,0-4.267-1.707-4.267-4.267
	c0-2.56,1.707-4.267,4.267-4.267H89.76c2.56,0,4.267,1.707,4.267,4.267C94.027,254.613,92.32,256.32,89.76,256.32z M335.52,213.653
	c-1.707,0-3.413-0.853-3.413-2.56c-6.827-13.653-17.92-25.6-30.72-34.987c-1.707-1.707-2.56-4.267-0.853-5.973
	c1.707-1.707,4.267-2.56,5.973-0.853c14.507,9.387,26.453,22.187,34.133,37.547c0.853,1.707,0,4.267-1.707,5.973
	C337.227,213.653,336.373,213.653,335.52,213.653z M101.707,194.027c-0.853,0-0.853,0-1.707,0l-31.573-12.8
	c-1.707-0.853-2.56-2.56-2.56-4.267c0-0.853,0-0.853,0-1.707c0.853-2.56,3.413-3.413,5.973-2.56l31.573,12.8
	c1.707,0.853,2.56,2.56,2.56,4.267c0,0.853,0,0.853,0,1.707C105.12,193.173,103.413,194.027,101.707,194.027z M402.08,194.027
	c-1.707,0-3.413-0.853-4.267-2.56c0-0.853,0-0.853,0-1.707c0-1.707,0.853-3.413,2.56-4.267l31.573-12.8
	c2.56-0.853,4.267,0,5.973,2.56c0,0.853,0,0.853,0,1.707c0,1.707-0.853,3.413-2.56,4.267l-31.573,12.8
	C402.933,194.027,402.08,194.027,402.08,194.027z M464.373,168.427c-1.707,0-3.413-0.853-4.267-2.56c0-0.853,0-0.853,0-1.707
	c0-1.707,0.853-3.413,2.56-4.267l34.987-14.507c2.56-0.853,4.267,0,5.973,2.56c0,0.853,0,0.853,0,1.707
	c0,1.707-0.853,3.413-2.56,4.267l-34.987,14.507C466.08,168.427,465.227,168.427,464.373,168.427z M39.413,168.427
	c-0.853,0-0.853,0-1.707,0L2.72,153.92c-1.707-0.853-2.56-2.56-2.56-4.267c0-0.853,0-0.853,0-1.707
	c0.853-2.56,3.413-3.413,5.973-2.56l34.987,14.507c1.707,0.853,2.56,2.56,2.56,4.267c0,0.853,0,0.853,0,1.707
	C41.973,167.573,41.12,168.427,39.413,168.427z M369.653,142.827c-0.853,0-2.56,0-3.413-0.853c-0.853-0.853-0.853-1.707-0.853-3.413
	s0-2.56,0.853-3.413l41.813-41.813c1.707-1.707,4.267-1.707,5.973,0c0.853,0.853,0.853,1.707,0.853,3.413
	c0,1.707,0,2.56-0.853,3.413l-41.813,41.813C371.36,142.827,370.507,142.827,369.653,142.827z M140.107,142.827
	c-0.853,0-2.56,0-3.413-0.853l-48.64-48.64C87.2,92.48,87.2,91.627,87.2,89.92s0-2.56,0.853-3.413c1.707-1.707,4.267-1.707,5.973,0
	l48.64,48.64c0.853,0.853,0.853,1.707,0.853,3.413s0,2.56-0.853,3.413C141.813,142.827,140.96,142.827,140.107,142.827z
	 M189.6,106.133c-1.707,0-3.413-0.853-4.267-2.56L172.533,72c0-0.853,0-0.853,0-1.707c0-1.707,0.853-3.413,2.56-4.267
	c2.56-0.853,4.267,0,5.973,2.56l12.8,31.573c0,0.853,0,0.853,0,1.707c0,1.707-0.853,3.413-2.56,4.267
	C191.307,106.133,190.453,106.133,189.6,106.133z M314.187,106.133c-0.853,0-0.853,0-1.707,0c-1.707-0.853-2.56-2.56-2.56-4.267
	c0-0.853,0-0.853,0-1.707l12.8-31.573c0.853-2.56,3.413-3.413,5.973-2.56c1.707,0.853,2.56,2.56,2.56,4.267c0,0.853,0,0.853,0,1.707
	l-12.8,31.573C317.6,105.28,315.893,106.133,314.187,106.133z M251.893,94.187c-2.56,0-4.267-1.707-4.267-4.267V30.187
	c0-2.56,1.707-4.267,4.267-4.267s4.267,1.707,4.267,4.267V89.92C256.16,92.48,254.453,94.187,251.893,94.187z M164,43.84
	c-1.707,0-3.413-0.853-4.267-2.56L145.227,6.293c0-0.853,0-0.853,0-1.707c0-1.707,0.853-3.413,2.56-4.267
	c2.56-0.853,4.267,0,5.973,2.56l14.507,34.987c0,0.853,0,0.853,0,1.707c0,1.707-0.853,3.413-2.56,4.267
	C164.853,42.987,164,43.84,164,43.84z M339.787,43.84c-0.853,0-0.853,0-1.707,0c-1.707-0.853-2.56-2.56-2.56-4.267
	c0-0.853,0-0.853,0-1.707L350.027,2.88c0.853-2.56,3.413-3.413,5.973-2.56c1.707,0.853,2.56,2.56,2.56,4.267
	c0,0.853,0,0.853,0,1.707L344.053,41.28C343.2,42.133,341.493,43.84,339.787,43.84z"/>
<g>
</g>
<g>
</g>
<g>
</g>
<g>
</g>
<g>
</g>
<g>
</g>
<g>
</g>
<g>
</g>
<g>
</g>
<g>
</g>
<g>
</g>
<g>
</g>
<g>
</g>
<g>
</g>
<g>
</g>
</svg>
