<?xml version="1.0" encoding="iso-8859-1"?>
<!-- Generator: Adobe Illustrator 19.0.0, SVG Export Plug-In . SVG Version: 6.00 Build 0)  -->
<svg version="1.1" id="Layer_1" xmlns="http://www.w3.org/2000/svg" xmlns:xlink="http://www.w3.org/1999/xlink" x="0px" y="0px"
	 viewBox="0 0 503.467 503.467" style="enable-background:new 0 0 503.467 503.467;" xml:space="preserve">
<g transform="translate(1 5)">
	<path style="fill:#FFE079;" d="M344.6,67.533c46.933,0,85.333,38.4,85.333,85.333S391.533,238.2,344.6,238.2
		s-85.333-38.4-85.333-85.333S297.667,67.533,344.6,67.533"/>
	<path style="fill:#ECF4F7;" d="M139.8,76.067v42.667H54.467V76.067c0-23.893,18.773-42.667,42.667-42.667
		S139.8,52.173,139.8,76.067"/>
	<path style="fill:#FF7474;" d="M54.467,272.333v-51.2v-51.2v-51.2H139.8v197.973c30.72,15.36,51.2,46.933,51.2,83.627
		c0,52.053-41.813,93.867-93.867,93.867S3.267,452.387,3.267,400.333c0-36.693,20.48-68.267,51.2-83.627V272.333z"/>
</g>
<path style="fill:#51565F;" d="M98.133,503.467C44.373,503.467,0,459.093,0,405.333c0-35.84,19.627-69.12,51.2-86.187V123.733
	c0-2.56,1.707-4.267,4.267-4.267h51.2c2.56,0,4.267,1.707,4.267,4.267c0,2.56-1.707,4.267-4.267,4.267H59.733v42.667h12.8
	c2.56,0,4.267,1.707,4.267,4.267c0,2.56-1.707,4.267-4.267,4.267h-12.8v42.667h12.8c2.56,0,4.267,1.707,4.267,4.267
	s-1.707,4.267-4.267,4.267h-12.8v42.667h12.8c2.56,0,4.267,1.707,4.267,4.267s-1.707,4.267-4.267,4.267h-12.8v40.107
	c0,1.707-0.853,3.413-2.56,3.413c-29.867,15.36-48.64,46.08-48.64,79.36c0,49.493,40.107,89.6,89.6,89.6s89.6-40.107,89.6-89.6
	c0-34.133-18.773-64-48.64-79.36c-1.707-0.853-2.56-2.56-2.56-3.413V81.067c0-21.333-17.067-38.4-38.4-38.4s-38.4,17.067-38.4,38.4
	V89.6c0,2.56-1.707,4.267-4.267,4.267c-2.56,0-4.267-1.707-4.267-4.267v-8.533c0-25.6,21.333-46.933,46.933-46.933
	s46.933,21.333,46.933,46.933v238.08c31.573,17.067,51.2,50.347,51.2,86.187C196.267,459.093,151.893,503.467,98.133,503.467z
	 M98.133,452.267c-2.56,0-4.267-1.707-4.267-4.267c0-2.56,1.707-4.267,4.267-4.267c21.333,0,38.4-17.067,38.4-38.4
	c0-2.56,1.707-4.267,4.267-4.267c2.56,0,4.267,1.707,4.267,4.267C145.067,430.933,123.733,452.267,98.133,452.267z M345.6,315.733
	c-2.56,0-4.267-1.707-4.267-4.267v-34.133c0-2.56,1.707-4.267,4.267-4.267s4.267,1.707,4.267,4.267v34.133
	C349.867,314.027,348.16,315.733,345.6,315.733z M397.653,288.427c-1.707,0-3.413-0.853-4.267-2.56l-6.827-15.36
	c0-0.853,0-0.853,0-1.707c0-1.707,0.853-3.413,2.56-4.267c2.56-0.853,4.267,0,5.973,2.56l6.827,15.36c0,0.853,0,0.853,0,1.707
	c0,1.707-0.853,3.413-2.56,4.267C399.36,288.427,398.507,288.427,397.653,288.427z M293.547,288.427c-0.853,0-0.853,0-1.707,0
	c-1.707-0.853-2.56-2.56-2.56-4.267c0-0.853,0-0.853,0-1.707l6.827-15.36c0.853-2.56,3.413-3.413,5.973-2.56
	c1.707,0.853,2.56,2.56,2.56,4.267c0,0.853,0,0.853,0,1.707l-6.827,15.36C296.96,287.573,295.253,288.427,293.547,288.427z
	 M237.227,270.507c-0.853,0-2.56,0-3.413-0.853c-0.853-0.853-0.853-1.707-0.853-3.413s0-2.56,0.853-3.413l23.893-23.893
	c1.707-1.707,4.267-1.707,5.973,0c0.853,0.853,0.853,1.707,0.853,3.413s0,2.56-0.853,3.413l-23.893,23.893
	C238.933,270.507,238.08,270.507,237.227,270.507z M453.973,270.507c-0.853,0-2.56,0-3.413-0.853l-23.893-23.893
	c-0.853-0.853-0.853-1.707-0.853-3.413s0-2.56,0.853-3.413c1.707-1.707,4.267-1.707,5.973,0l23.893,23.893
	c0.853,0.853,0.853,1.707,0.853,3.413s0,2.56-0.853,3.413C455.68,270.507,455.68,270.507,453.973,270.507z M345.6,247.467
	c-49.493,0-89.6-40.107-89.6-89.6s40.107-89.6,89.6-89.6s89.6,40.107,89.6,89.6S395.093,247.467,345.6,247.467z M345.6,76.8
	c-44.373,0-81.067,36.693-81.067,81.067s36.693,81.067,81.067,81.067s81.067-36.693,81.067-81.067S389.973,76.8,345.6,76.8z
	 M219.307,214.187c-1.707,0-3.413-0.853-4.267-2.56c0-0.853,0-0.853,0-1.707c0-1.707,0.853-3.413,2.56-4.267l15.36-6.827
	c2.56-0.853,4.267,0,5.973,2.56c0,0.853,0,0.853,0,1.707c0,1.707-0.853,3.413-2.56,4.267l-15.36,6.827
	C220.16,214.187,220.16,214.187,219.307,214.187z M471.893,214.187c-0.853,0-0.853,0-1.707,0l-15.36-6.827
	c-1.707-0.853-2.56-2.56-2.56-4.267c0-0.853,0-0.853,0-1.707c0.853-2.56,3.413-3.413,5.973-2.56l15.36,6.827
	c1.707,0.853,2.56,2.56,2.56,4.267c0,0.853,0,0.853,0,1.707C475.307,213.333,473.6,214.187,471.893,214.187z M192,162.133
	c-2.56,0-4.267-1.707-4.267-4.267c0-2.56,1.707-4.267,4.267-4.267h34.133c2.56,0,4.267,1.707,4.267,4.267
	c0,2.56-1.707,4.267-4.267,4.267H192z M499.2,162.133h-34.133c-2.56,0-4.267-1.707-4.267-4.267c0-2.56,1.707-4.267,4.267-4.267
	H499.2c2.56,0,4.267,1.707,4.267,4.267C503.467,160.427,501.76,162.133,499.2,162.133z M455.68,116.053
	c-1.707,0-3.413-0.853-4.267-2.56c0-0.853,0-0.853,0-1.707c0-1.707,0.853-3.413,2.56-4.267l15.36-6.827
	c2.56-0.853,4.267,0,5.973,2.56c0,0.853,0,0.853,0,1.707c0,1.707-0.853,3.413-2.56,4.267l-15.36,6.827
	C457.387,116.053,456.533,116.053,455.68,116.053z M235.52,116.053c-0.853,0-0.853,0-1.707,0l-15.36-6.827
	c-1.707-0.853-2.56-2.56-2.56-4.267c0-0.853,0-0.853,0-1.707c0.853-2.56,3.413-3.413,5.973-2.56l15.36,6.827
	c1.707,0.853,2.56,2.56,2.56,4.267c0,0.853,0,0.853,0,1.707C238.08,115.2,237.227,116.053,235.52,116.053z M430.08,77.653
	c-0.853,0-2.56,0-3.413-0.853c-0.853-0.853-0.853-1.707-0.853-3.413c0-1.707,0-2.56,0.853-3.413L450.56,46.08
	c1.707-1.707,4.267-1.707,5.973,0c0.853,0.853,0.853,1.707,0.853,3.413c0,1.707,0,2.56-0.853,3.413L432.64,76.8
	C432.64,77.653,430.933,77.653,430.08,77.653z M261.12,77.653c-0.853,0-2.56,0-3.413-0.853l-23.893-23.893
	c-0.853-0.853-0.853-1.707-0.853-3.413c0-1.707,0-2.56,0.853-3.413c1.707-1.707,4.267-1.707,5.973,0l23.893,23.893
	c0.853,0.853,0.853,1.707,0.853,3.413c0,1.707,0,2.56-0.853,3.413C262.827,77.653,261.973,77.653,261.12,77.653z M299.52,52.053
	c-1.707,0-3.413-0.853-4.267-2.56l-6.827-15.36c0-0.853,0-0.853,0-1.707c0-1.707,0.853-3.413,2.56-4.267
	c2.56-0.853,4.267,0,5.973,2.56l6.827,15.36c0,0.853,0,0.853,0,1.707c0,1.707-0.853,3.413-2.56,4.267
	C301.227,52.053,300.373,52.053,299.52,52.053z M391.68,52.053c-0.853,0-0.853,0-1.707,0c-1.707-0.853-2.56-2.56-2.56-4.267
	c0-0.853,0-0.853,0-1.707l6.827-15.36c0.853-2.56,3.413-3.413,5.973-2.56c1.707,0.853,2.56,2.56,2.56,4.267c0,0.853,0,0.853,0,1.707
	l-6.827,15.36C394.24,50.347,393.387,52.053,391.68,52.053z M345.6,42.667c-2.56,0-4.267-1.707-4.267-4.267V4.267
	c0-2.56,1.707-4.267,4.267-4.267s4.267,1.707,4.267,4.267V38.4C349.867,40.96,348.16,42.667,345.6,42.667z"/>
<g>
</g>
<g>
</g>
<g>
</g>
<g>
</g>
<g>
</g>
<g>
</g>
<g>
</g>
<g>
</g>
<g>
</g>
<g>
</g>
<g>
</g>
<g>
</g>
<g>
</g>
<g>
</g>
<g>
</g>
</svg>
