<?xml version="1.0" encoding="iso-8859-1"?>
<!-- Generator: Adobe Illustrator 19.0.0, SVG Export Plug-In . SVG Version: 6.00 Build 0)  -->
<svg version="1.1" id="Layer_1" xmlns="http://www.w3.org/2000/svg" xmlns:xlink="http://www.w3.org/1999/xlink" x="0px" y="0px"
	 viewBox="0 0 505.173 505.173" style="enable-background:new 0 0 505.173 505.173;" xml:space="preserve">
<path style="fill:#80D6FA;" d="M430.08,188.16c39.253,11.093,69.12,46.933,69.12,90.453c0,52.053-41.813,93.867-93.867,93.867H64
	c-33.28,0-59.733-26.453-59.733-59.733c0-28.16,19.627-51.2,45.227-58.027C42.667,241.067,38.4,226.56,38.4,210.347
	c0-52.053,41.813-93.867,93.867-93.867c18.773,0,35.84,5.12,51.2,15.36c17.92-48.64,64.853-83.627,119.467-83.627
	c70.827,0,128,57.173,128,128C430.933,180.48,430.933,183.893,430.08,188.16"/>
<path style="fill:#51565F;" d="M456.533,462.08c-12.8,0-24.747-5.12-33.28-13.653c-1.707-1.707-1.707-4.267,0-5.973
	c1.707-1.707,4.267-1.707,5.973,0c7.68,7.68,17.067,11.093,27.307,11.093c21.333,0,38.4-17.067,38.4-38.4
	c0-21.333-17.067-38.4-38.4-38.4h-42.667c-2.56,0-4.267-1.707-4.267-4.267s1.707-4.267,4.267-4.267h42.667
	c25.6,0,46.933,21.333,46.933,46.933C503.467,440.746,482.133,462.08,456.533,462.08z M371.2,462.08
	c-7.68,0-15.36-3.413-21.333-8.533c-1.707-1.707-1.707-4.267,0-5.973c1.707-1.707,4.267-1.707,5.973,0
	c4.267,4.267,9.387,5.973,15.36,5.973c11.947,0,21.333-9.387,21.333-21.333c0-11.947-9.387-21.333-21.333-21.333H157.867
	c-2.56,0-4.267-1.707-4.267-4.267c0-2.56,1.707-4.267,4.267-4.267H371.2c16.213,0,29.867,13.653,29.867,29.867
	C401.067,448.427,387.413,462.08,371.2,462.08z M345.6,376.747H123.733c-2.56,0-4.267-1.707-4.267-4.267
	c0-2.56,1.707-4.267,4.267-4.267H345.6c25.6,0,46.933-21.333,46.933-46.933S371.2,274.347,345.6,274.347
	c-25.6,0-46.933,21.333-46.933,46.933c0,2.56-1.707,4.267-4.267,4.267s-4.267-1.707-4.267-4.267
	c0-30.72,24.747-55.467,55.467-55.467s55.467,24.747,55.467,55.467S375.467,376.747,345.6,376.747z M89.6,376.747H64
	c-34.987,0-64-29.013-64-64s29.013-64,64-64c2.56,0,4.267,1.707,4.267,4.267c0,2.56-1.707,4.267-4.267,4.267
	c-30.72,0-55.467,24.747-55.467,55.467S33.28,368.213,64,368.213h25.6c2.56,0,4.267,1.707,4.267,4.267
	C93.867,375.04,91.307,376.747,89.6,376.747z M473.6,346.88c-0.853,0-1.707,0-2.56-0.853c-1.707-1.707-1.707-4.267,0-5.973
	c15.36-17.067,24.747-38.4,24.747-61.44c0-29.013-14.507-56.32-37.547-73.387c-1.707-1.707-2.56-4.267-0.853-5.973
	c1.707-1.707,4.267-2.56,5.973-0.853c25.6,18.773,41.813,48.64,41.813,80.213c0,24.747-9.387,48.64-26.453,67.413
	C475.307,346.88,474.453,346.88,473.6,346.88z M40.107,231.68c-1.707,0-3.413-1.707-4.267-3.413
	c-0.853-5.973-1.707-11.947-1.707-17.92c0-53.76,44.373-98.133,98.133-98.133c27.307,0,52.053,11.093,70.827,30.72
	c1.707,1.707,1.707,4.267,0,5.973c-1.707,1.707-4.267,1.707-5.973,0c-17.067-17.92-40.107-28.16-64.853-28.16
	c-49.493,0-89.6,40.107-89.6,89.6c0,5.12,0.853,11.093,1.707,16.213C44.373,229.12,42.667,230.827,40.107,231.68L40.107,231.68z
	 M425.813,214.613h-0.853c-2.56-0.853-3.413-2.56-2.56-5.12c2.56-11.093,4.267-22.187,4.267-33.28
	c0-68.267-55.467-123.733-123.733-123.733c-40.96,0-79.36,20.48-102.4,54.613c-1.707,1.707-4.267,2.56-5.973,0.853
	c-1.707-1.707-2.56-4.267-0.853-5.973c24.747-36.693,65.707-58.88,109.227-58.88c72.533,0,132.267,59.733,132.267,132.267
	c0,11.947-1.707,23.893-5.12,34.987C429.227,213.76,427.52,214.613,425.813,214.613z M75.093,197.547H74.24
	c-2.56-0.853-3.413-3.413-2.56-5.12c4.267-13.653,12.8-25.6,24.747-34.133c1.707-1.707,4.267-0.853,5.973,0.853
	c1.707,1.707,0.853,4.267-0.853,5.973c-10.24,6.827-17.92,17.92-21.333,29.867C78.507,196.693,76.8,197.547,75.093,197.547z
	 M396.8,180.48c-2.56,0-4.267-1.707-4.267-4.267c0-17.067-5.12-34.133-14.507-48.64c-1.707-1.707-0.853-4.267,0.853-5.973
	c1.707-1.707,4.267-0.853,5.973,0.853c10.24,16.213,16.213,34.133,16.213,53.76C401.067,178.773,399.36,180.48,396.8,180.48z"/>
<g>
</g>
<g>
</g>
<g>
</g>
<g>
</g>
<g>
</g>
<g>
</g>
<g>
</g>
<g>
</g>
<g>
</g>
<g>
</g>
<g>
</g>
<g>
</g>
<g>
</g>
<g>
</g>
<g>
</g>
</svg>
