<?xml version="1.0" encoding="iso-8859-1"?>
<!-- Generator: Adobe Illustrator 19.0.0, SVG Export Plug-In . SVG Version: 6.00 Build 0)  -->
<svg version="1.1" id="Layer_1" xmlns="http://www.w3.org/2000/svg" xmlns:xlink="http://www.w3.org/1999/xlink" x="0px" y="0px"
	 viewBox="0 0 505.173 505.173" style="enable-background:new 0 0 505.173 505.173;" xml:space="preserve">
<g transform="translate(1 9)">
	<path style="fill:#80D6FA;" d="M127,149.72c1.707,0,2.56,0,4.267,0c18.773,0,35.84,5.973,51.2,15.36
		c2.56-6.827,5.12-12.8,8.533-18.773c1.707-2.56,2.56-5.12,4.267-6.827c1.707-2.56,3.413-5.12,5.973-7.68
		c4.267-5.973,9.387-11.093,15.36-16.213c1.707-1.707,3.413-2.56,5.12-4.267c2.56-1.707,5.12-4.267,7.68-5.973l0,0
		c20.48-14.507,46.08-23.04,72.533-23.04c70.827,0,128,57.173,128,128c0,4.267,0,7.68-0.853,11.947
		c40.107,11.093,69.12,46.933,69.12,90.453c0,52.053-41.813,93.867-93.867,93.867H344.6H122.733H63
		c-33.28,0-59.733-26.453-59.733-59.733c0-28.16,19.627-51.2,45.227-58.027C41.667,275.16,37.4,260.653,37.4,244.44
		c0-29.867,14.507-57.173,36.693-74.24l0,0c10.24-7.68,21.333-13.653,34.133-17.067c2.56-0.853,5.12-0.853,7.68-1.707
		c2.56-0.853,5.973-0.853,8.533-0.853C125.293,149.72,126.147,149.72,127,149.72"/>
	<g>
		<circle style="fill:#ECF4F7;" cx="455.533" cy="448.387" r="42.667"/>
		<path style="fill:#ECF4F7;" d="M370.2,439.853c14.507,0,25.6,11.093,25.6,25.6s-11.093,25.6-25.6,25.6
			c-14.507,0-25.6-11.093-25.6-25.6c0-3.413,0.853-5.973,1.707-8.533h-189.44v-17.067H370.2z"/>
		<path style="fill:#ECF4F7;" d="M306.2,388.653c-8.533-9.387-12.8-21.333-12.8-34.133c0-28.16,23.04-51.2,51.2-51.2
			c28.16,0,51.2,23.04,51.2,51.2c0,28.16-23.04,51.2-51.2,51.2H122.733v-17.067H306.2z"/>
	</g>
	<path style="fill:#FFE079;" d="M229.4,104.493L229.4,104.493c-2.56,1.707-5.12,4.267-7.68,5.973
		c-1.707,1.707-3.413,2.56-5.12,4.267c-5.12,5.12-11.093,10.24-15.36,16.213c-1.707,2.56-4.267,5.12-5.973,7.68
		c-1.707,2.56-3.413,4.267-4.267,6.827c-3.413,5.973-6.827,12.8-9.387,18.773c-14.507-9.387-32.427-15.36-51.2-15.36
		c-1.707,0-2.56,0-4.267,0c-0.853,0-1.707,0-3.413,0c-3.413,0-5.973,0.853-8.533,0.853c-2.56,0-5.12,0.853-7.68,1.707
		c-12.8,3.413-23.893,8.533-34.133,16.213c-1.707-5.973-2.56-12.8-2.56-19.627c0-46.933,38.4-85.333,85.333-85.333
		C187.587,64.387,214.04,80.6,229.4,104.493"/>
</g>
<path style="fill:#51565F;" d="M456.533,504.32c-12.8,0-24.747-5.12-33.28-13.653c-1.707-1.707-1.707-4.267,0-5.973
	c1.707-1.707,4.267-1.707,5.973,0c7.68,7.68,17.067,11.093,27.307,11.093c21.333,0,38.4-17.067,38.4-38.4s-17.067-38.4-38.4-38.4
	h-42.667c-2.56,0-4.267-1.707-4.267-4.267c0-2.56,1.707-4.267,4.267-4.267h42.667c25.6,0,46.933,21.333,46.933,46.933
	S482.133,504.32,456.533,504.32z M371.2,504.32c-7.68,0-15.36-3.413-21.333-8.533c-1.707-1.707-1.707-4.267,0-5.973
	c1.707-1.707,4.267-1.707,5.973,0c4.267,4.267,9.387,5.973,15.36,5.973c11.947,0,21.333-9.387,21.333-21.333
	s-9.387-21.333-21.333-21.333H157.867c-2.56,0-4.267-1.707-4.267-4.267c0-2.56,1.707-4.267,4.267-4.267H371.2
	c16.213,0,29.867,13.653,29.867,29.867S387.413,504.32,371.2,504.32z M345.6,418.987H123.733c-2.56,0-4.267-1.707-4.267-4.267
	s1.707-4.267,4.267-4.267H345.6c25.6,0,46.933-21.333,46.933-46.933c0-25.6-21.333-46.933-46.933-46.933
	c-25.6,0-46.933,21.333-46.933,46.933c0,2.56-1.707,4.267-4.267,4.267s-4.267-1.707-4.267-4.267
	c0-30.72,24.747-55.467,55.467-55.467s55.467,24.747,55.467,55.467S375.467,418.987,345.6,418.987z M89.6,418.987H64
	c-34.987,0-64-29.013-64-64s29.013-64,64-64c2.56,0,4.267,1.707,4.267,4.267c0,2.56-1.707,4.267-4.267,4.267
	c-30.72,0-55.467,24.747-55.467,55.467S33.28,410.453,64,410.453h25.6c2.56,0,4.267,1.707,4.267,4.267S91.307,418.987,89.6,418.987z
	 M473.6,389.12c-0.853,0-1.707,0-2.56-0.853c-1.707-1.707-1.707-4.267,0-5.973c15.36-17.067,24.747-38.4,24.747-61.44
	c0-29.013-14.507-56.32-37.547-73.387c-1.707-1.707-2.56-4.267-0.853-5.973c1.707-1.707,4.267-2.56,5.973-0.853
	c25.6,18.773,41.813,48.64,41.813,80.213c0,24.747-9.387,48.64-26.453,67.413C475.307,389.12,474.453,389.12,473.6,389.12z
	 M40.107,273.92c-1.707,0-3.413-1.707-4.267-3.413c-0.853-5.973-1.707-11.947-1.707-17.92c0-53.76,44.373-98.133,98.133-98.133
	c27.307,0,52.053,11.093,70.827,30.72c1.707,1.707,1.707,4.267,0,5.973c-1.707,1.707-4.267,1.707-5.973,0
	c-17.067-17.92-40.107-28.16-64.853-28.16c-49.493,0-89.6,40.107-89.6,89.6c0,5.12,0.853,11.093,1.707,16.213
	C44.373,271.36,42.667,273.067,40.107,273.92L40.107,273.92z M425.813,256.853h-0.853c-2.56-0.853-3.413-2.56-2.56-5.12
	c2.56-11.093,4.267-22.187,4.267-33.28c0-68.267-55.467-123.733-123.733-123.733c-40.96,0-79.36,20.48-102.4,54.613
	c-1.707,1.707-4.267,2.56-5.973,0.853c-1.707-1.707-2.56-4.267-0.853-5.973c24.747-36.693,65.707-58.88,109.227-58.88
	c72.533,0,132.267,59.733,132.267,132.267c0,11.947-1.707,23.893-5.12,34.987C429.227,256,427.52,256.853,425.813,256.853z
	 M75.093,239.787H74.24c-2.56-0.853-3.413-3.413-2.56-5.12c4.267-13.653,12.8-25.6,24.747-34.133
	c1.707-1.707,4.267-0.853,5.973,0.853c1.707,1.707,0.853,4.267-0.853,5.973c-10.24,6.827-17.92,17.92-21.333,29.867
	C78.507,238.933,76.8,239.787,75.093,239.787z M396.8,222.72c-2.56,0-4.267-1.707-4.267-4.267c0-17.067-5.12-34.133-14.507-48.64
	c-1.707-1.707-0.853-4.267,0.853-5.973c1.707-1.707,4.267-0.853,5.973,0.853c10.24,16.213,16.213,34.133,16.213,53.76
	C401.067,221.013,399.36,222.72,396.8,222.72z M38.4,162.987H4.267c-2.56,0-4.267-1.707-4.267-4.267c0-2.56,1.707-4.267,4.267-4.267
	H38.4c2.56,0,4.267,1.707,4.267,4.267C42.667,161.28,40.96,162.987,38.4,162.987z M74.24,145.92h-0.853
	c-2.56-0.853-3.413-2.56-3.413-5.12c8.533-41.813,45.227-71.68,87.893-71.68c19.627,0,38.4,5.973,53.76,17.92
	c1.707,1.707,2.56,4.267,0.853,5.973c-1.707,1.707-4.267,2.56-5.973,0.853c-14.507-10.24-30.72-16.213-48.64-16.213
	c-38.4,0-71.68,27.307-79.36,64.853C77.653,144.213,75.947,145.92,74.24,145.92z M47.787,116.907c-0.853,0-0.853,0-1.707,0
	l-15.36-6.827c-2.56-0.853-3.413-3.413-2.56-5.973s3.413-3.413,5.973-2.56l15.36,6.827c2.56,0.853,3.413,3.413,2.56,5.973
	C50.347,116.053,49.493,116.907,47.787,116.907z M242.347,78.507c-0.853,0-2.56,0-3.413-0.853c-1.707-1.707-1.707-4.267,0-5.973
	l23.893-23.893c1.707-1.707,4.267-1.707,5.973,0s1.707,4.267,0,5.973l-23.893,23.893C244.907,78.507,243.2,78.507,242.347,78.507z
	 M73.387,78.507c-0.853,0-2.56,0-3.413-0.853L46.08,53.76c-1.707-1.707-1.707-4.267,0-5.973s4.267-1.707,5.973,0L75.947,71.68
	c1.707,1.707,1.707,4.267,0,5.973C75.947,78.507,74.24,78.507,73.387,78.507z M203.947,52.907c-0.853,0-0.853,0-1.707,0
	c-2.56-0.853-3.413-3.413-2.56-5.973l6.827-15.36c0.853-2.56,3.413-3.413,5.973-2.56c2.56,0.853,3.413,3.413,2.56,5.973
	l-6.827,15.36C206.507,51.2,205.653,52.907,203.947,52.907z M111.787,52.907c-1.707,0-3.413-0.853-4.267-2.56l-6.827-15.36
	c-0.853-2.56,0-4.267,2.56-5.973c2.56-0.853,4.267,0,5.973,2.56l6.827,15.36c0.853,2.56,0,4.267-2.56,5.973
	C113.493,52.907,112.64,52.907,111.787,52.907z M157.867,43.52c-2.56,0-4.267-1.707-4.267-4.267V5.12
	c0-2.56,1.707-4.267,4.267-4.267c2.56,0,4.267,1.707,4.267,4.267v34.133C162.133,41.813,160.427,43.52,157.867,43.52z"/>
<g>
</g>
<g>
</g>
<g>
</g>
<g>
</g>
<g>
</g>
<g>
</g>
<g>
</g>
<g>
</g>
<g>
</g>
<g>
</g>
<g>
</g>
<g>
</g>
<g>
</g>
<g>
</g>
<g>
</g>
</svg>
