<?xml version="1.0" encoding="iso-8859-1"?>
<!-- Generator: Adobe Illustrator 19.0.0, SVG Export Plug-In . SVG Version: 6.00 Build 0)  -->
<svg version="1.1" id="Layer_1" xmlns="http://www.w3.org/2000/svg" xmlns:xlink="http://www.w3.org/1999/xlink" x="0px" y="0px"
	 viewBox="0 0 503.467 503.467" style="enable-background:new 0 0 503.467 503.467;" xml:space="preserve">
<g transform="translate(1 8)">
	<path style="fill:#ECF4F7;" d="M350.573,175.467c-14.507-12.8-23.04-30.72-23.04-51.2C327.533,86.72,358.253,56,395.8,56
		s68.267,30.72,68.267,68.267s-30.72,68.267-68.267,68.267H20.333v-17.067H350.573z"/>
	<path style="fill:#ECF4F7;" d="M455.533,243.733c23.893,0,42.667,18.773,42.667,42.667c0,23.893-18.773,42.667-42.667,42.667
		s-42.667-18.773-42.667-42.667c0-9.387,3.413-18.773,8.533-25.6H3.267v-17.067H455.533z"/>
	<path style="fill:#ECF4F7;" d="M233.667,346.133c23.893,0,42.667,18.773,42.667,42.667s-18.773,42.667-42.667,42.667
		S191,412.693,191,388.8c0-9.387,3.413-18.773,8.533-25.6H37.4v-17.067H233.667z"/>
	<path style="fill:#ECF4F7;" d="M336.067,294.933c14.507,0,25.6,11.093,25.6,25.6s-11.093,25.6-25.6,25.6s-25.6-11.093-25.6-25.6
		c0-3.413,0.853-5.973,1.707-8.533H20.333v-17.067H336.067z"/>
	<path style="fill:#ECF4F7;" d="M235.373,124.267c-0.853-2.56-1.707-5.12-1.707-8.533c0-14.507,11.093-25.6,25.6-25.6
		c14.507,0,25.6,11.093,25.6,25.6s-11.093,25.6-25.6,25.6H37.4v-17.067H235.373z"/>
</g>
<path style="fill:#51565F;" d="M234.667,443.733c-25.6,0-46.933-21.333-46.933-46.933c0-2.56,1.707-4.267,4.267-4.267
	s4.267,1.707,4.267,4.267c0,21.333,17.067,38.4,38.4,38.4s38.4-17.067,38.4-38.4s-17.067-38.4-38.4-38.4H38.4
	c-2.56,0-4.267-1.707-4.267-4.267c0-2.56,1.707-4.267,4.267-4.267h196.267c25.6,0,46.933,21.333,46.933,46.933
	S260.267,443.733,234.667,443.733z M337.067,358.4c-7.68,0-15.36-3.413-21.333-8.533c-1.707-1.707-1.707-4.267,0-5.973
	c1.707-1.707,4.267-1.707,5.973,0c4.267,4.267,9.387,5.973,15.36,5.973c11.947,0,21.333-9.387,21.333-21.333
	s-9.387-21.333-21.333-21.333H21.333c-2.56,0-4.267-1.707-4.267-4.267s1.707-4.267,4.267-4.267h315.733
	c16.213,0,29.867,13.653,29.867,29.867S353.28,358.4,337.067,358.4z M456.533,341.333c-25.6,0-46.933-21.333-46.933-46.933
	c0-2.56,1.707-4.267,4.267-4.267s4.267,1.707,4.267,4.267c0,21.333,17.067,38.4,38.4,38.4s38.4-17.067,38.4-38.4
	c0-21.333-17.067-38.4-38.4-38.4H4.267C1.707,256,0,254.293,0,251.733c0-2.56,1.707-4.267,4.267-4.267h452.267
	c25.6,0,46.933,21.333,46.933,46.933S482.133,341.333,456.533,341.333z M396.8,204.8H21.333c-2.56,0-4.267-1.707-4.267-4.267
	c0-2.56,1.707-4.267,4.267-4.267H396.8c29.867,0,64-28.16,64-64s-34.133-64-64-64c-34.987,0-64,29.013-64,64
	c0,2.56-1.707,4.267-4.267,4.267s-4.267-1.707-4.267-4.267c0-40.107,32.427-72.533,72.533-72.533
	c34.133,0,72.533,30.72,72.533,72.533S430.933,204.8,396.8,204.8z M261.12,153.6H38.4c-2.56,0-4.267-1.707-4.267-4.267
	s1.707-4.267,4.267-4.267h222.72c11.947,0,20.48-9.387,20.48-21.333c0-11.947-8.533-21.333-20.48-21.333
	c-5.973,0-11.093,2.56-15.36,5.973c-1.707,1.707-4.267,1.707-5.973,0c-1.707-1.707-1.707-4.267,0-5.973
	c5.973-5.973,12.8-8.533,21.333-8.533c16.213,0,29.013,12.8,29.013,29.867S277.333,153.6,261.12,153.6z"/>
<g>
</g>
<g>
</g>
<g>
</g>
<g>
</g>
<g>
</g>
<g>
</g>
<g>
</g>
<g>
</g>
<g>
</g>
<g>
</g>
<g>
</g>
<g>
</g>
<g>
</g>
<g>
</g>
<g>
</g>
</svg>
