<?xml version="1.0" encoding="iso-8859-1"?>
<!-- Generator: Adobe Illustrator 19.0.0, SVG Export Plug-In . SVG Version: 6.00 Build 0)  -->
<svg version="1.1" id="Layer_1" xmlns="http://www.w3.org/2000/svg" xmlns:xlink="http://www.w3.org/1999/xlink" x="0px" y="0px"
	 viewBox="0 0 504.123 504.123" style="enable-background:new 0 0 504.123 504.123;" xml:space="preserve">
<path style="fill:#FF7900;" d="M252.062,394.768c-78.816,0.008-142.698-63.882-142.698-142.706
	c-0.024-78.824,63.882-142.706,142.698-142.706c78.832,0,142.714,63.89,142.714,142.706S330.878,394.768,252.062,394.768z"/>
<path style="fill:#FF5500;" d="M352.981,151.142c55.745,55.729,55.745,146.101,0,201.83c-55.729,55.745-146.07,55.745-201.823,0"/>
<circle style="fill:#FFAA00;" cx="252.077" cy="252.069" r="69.908"/>
<g>
	<path style="fill:#FF9700;" d="M202.65,202.642c27.301-27.294,71.554-27.294,98.855,0c27.294,27.309,27.294,71.554,0,98.863"/>
	<path style="fill:#FF9700;" d="M256,43.355c0,1.938-2.001,3.505-3.923,3.505l0,0c-1.946,0-3.954-1.568-3.954-3.505V3.521
		c0-1.946,2.009-3.521,3.954-3.521l0,0C253.999,0,256,1.575,256,3.521V43.355z"/>
	<path style="fill:#FF9700;" d="M256,500.618c0,1.938-2.001,3.505-3.923,3.505l0,0c-1.946,0-3.954-1.568-3.954-3.505v-39.834
		c0-1.946,2.009-3.521,3.954-3.521l0,0c1.922,0,3.923,1.575,3.923,3.521V500.618z"/>
	<path style="fill:#FF9700;" d="M402.141,106.977c-1.371,1.371-3.6,1.363-4.962,0l0,0c-1.394-1.386-1.394-3.608-0.024-4.978
		L425.33,73.83c1.371-1.378,3.6-1.371,4.978,0l0,0c1.355,1.371,1.371,3.6,0,4.978L402.141,106.977z"/>
	<path style="fill:#FF9700;" d="M78.801,430.309c-1.363,1.363-3.592,1.363-4.962,0l0,0c-1.378-1.386-1.378-3.616-0.008-4.978
		l28.16-28.168c1.378-1.371,3.608-1.371,4.986,0l0,0c1.363,1.371,1.371,3.608-0.008,4.978L78.801,430.309z"/>
	<path style="fill:#FF9700;" d="M460.784,256c-1.946,0-3.521-2.009-3.521-3.938l0,0c0-1.953,1.575-3.938,3.513-3.938h39.841
		c1.938,0,3.505,1.985,3.505,3.938l0,0c0.016,1.93-1.567,3.938-3.505,3.938H460.784z"/>
	<path style="fill:#FF9700;" d="M3.521,256C1.583,256,0,254.204,0,252.274l0,0c0.016-1.946,1.583-3.631,3.521-3.616l39.826-0.063
		c1.946,0.016,3.521,1.772,3.529,3.718l0,0c0,1.922-1.583,3.686-3.529,3.686H3.521z"/>
	<path style="fill:#FF9700;" d="M397.154,402.141c-1.371-1.371-1.355-3.608,0-4.978l0,0c1.386-1.378,3.608-1.378,4.978-0.008
		l28.176,28.176c1.378,1.363,1.371,3.592-0.016,4.97l0,0c-1.355,1.371-3.584,1.378-4.962,0.008L397.154,402.141z"/>
	<path style="fill:#FF9700;" d="M73.83,78.809c-1.371-1.378-1.371-3.608,0-4.978l0,0c1.386-1.371,3.616-1.378,4.97,0l28.168,28.152
		c1.371,1.378,1.371,3.6,0.008,4.994l0,0c-1.378,1.363-3.616,1.371-4.986-0.024L73.83,78.809z"/>
	<path style="fill:#FF9700;" d="M150.772,69.545c0.961,1.686,0.378,3.836-1.292,4.797l0,0c-1.694,0.977-3.86,0.402-4.813-1.276
		l-19.905-34.493c-0.977-1.686-0.402-3.844,1.292-4.813l0,0c1.67-0.969,3.828-0.394,4.797,1.3L150.772,69.545z"/>
	<path style="fill:#FF9700;" d="M379.4,465.558c0.969,1.67,0.37,3.82-1.292,4.789l0,0c-1.694,0.969-3.844,0.402-4.813-1.276
		l-19.921-34.493c-0.969-1.694-0.386-3.836,1.292-4.805l0,0c1.678-0.969,3.828-0.402,4.813,1.284L379.4,465.558z"/>
	<path style="fill:#FF9700;" d="M309.492,51.365c-0.504,1.883-2.45,2.985-4.324,2.489l0,0c-1.875-0.504-2.985-2.434-2.481-4.301
		l10.319-38.479c0.496-1.875,2.434-2.993,4.293-2.481l0,0c1.867,0.496,3.001,2.426,2.497,4.301L309.492,51.365z"/>
	<path style="fill:#FF9700;" d="M191.141,493.056c-0.52,1.867-2.45,2.985-4.309,2.481l0,0c-1.883-0.512-3.001-2.45-2.497-4.309
		l10.319-38.479c0.488-1.867,2.434-2.985,4.317-2.489l0,0c1.851,0.496,2.977,2.442,2.473,4.317L191.141,493.056z"/>
	<path style="fill:#FF9700;" d="M434.586,150.749c-1.709,0.985-3.844,0.394-4.813-1.276l0,0c-0.977-1.701-0.394-3.844,1.292-4.805
		l34.493-19.921c1.678-0.985,3.812-0.394,4.805,1.3l0,0c0.961,1.662,0.402,3.812-1.3,4.797L434.586,150.749z"/>
	<path style="fill:#FF9700;" d="M38.581,379.384c-1.694,0.961-3.844,0.386-4.813-1.284l0,0c-0.953-1.694-0.394-3.86,1.292-4.813
		l34.477-19.921c1.694-0.961,3.844-0.386,4.829,1.3l0,0c0.961,1.678,0.386,3.836-1.3,4.797L38.581,379.384z"/>
	<path style="fill:#FF9700;" d="M452.758,309.484c-1.875-0.504-2.97-2.458-2.473-4.324l0,0c0.496-1.875,2.418-2.977,4.293-2.473
		l38.495,10.311c1.859,0.488,2.985,2.426,2.473,4.301l0,0c-0.496,1.875-2.434,3.001-4.309,2.497L452.758,309.484z"/>
	<path style="fill:#FF9700;" d="M11.075,191.134c-1.875-0.504-2.977-2.442-2.473-4.301l0,0c0.488-1.883,2.434-3.009,4.293-2.489
		l38.479,10.295c1.875,0.512,2.993,2.434,2.489,4.332l0,0c-0.504,1.859-2.434,2.993-4.324,2.465L11.075,191.134z"/>
	<path style="fill:#FF9700;" d="M73.066,144.644c1.678,0.969,2.261,3.127,1.268,4.805l0,0c-0.953,1.686-3.119,2.269-4.797,1.292
		L35.06,130.828c-1.709-0.977-2.276-3.127-1.3-4.805l0,0c0.977-1.686,3.143-2.269,4.821-1.284L73.066,144.644z"/>
	<path style="fill:#FF9700;" d="M469.079,373.28c1.686,0.961,2.229,3.135,1.284,4.797l0,0c-0.992,1.686-3.127,2.269-4.805,1.308
		l-34.493-19.921c-1.686-0.977-2.269-3.119-1.292-4.813l0,0c0.953-1.662,3.111-2.253,4.813-1.284L469.079,373.28z"/>
	<path style="fill:#FF9700;" d="M201.437,49.538c0.496,1.883-0.622,3.805-2.473,4.309l0,0c-1.883,0.496-3.82-0.607-4.317-2.473
		l-10.319-38.479c-0.496-1.875,0.614-3.805,2.473-4.301l0,0c1.867-0.496,3.805,0.599,4.317,2.473L201.437,49.538z"/>
	<path style="fill:#FF9700;" d="M319.795,491.221c0.496,1.875-0.63,3.805-2.497,4.309l0,0c-1.875,0.496-3.805-0.614-4.309-2.473
		l-10.303-38.487c-0.496-1.867,0.607-3.797,2.473-4.309l0,0c1.867-0.504,3.82,0.614,4.317,2.489L319.795,491.221z"/>
	<path style="fill:#FF9700;" d="M359.463,73.059c-0.969,1.694-3.119,2.261-4.797,1.292l0,0c-1.686-0.977-2.269-3.119-1.292-4.805
		l19.905-34.493c0.961-1.694,3.127-2.261,4.829-1.284l0,0c1.662,0.953,2.237,3.104,1.26,4.805L359.463,73.059z"/>
	<path style="fill:#FF9700;" d="M130.844,469.063c-1,1.686-3.127,2.253-4.797,1.292l0,0c-1.694-0.985-2.292-3.135-1.308-4.805
		l19.889-34.493c0.985-1.686,3.135-2.261,4.844-1.284l0,0c1.67,0.961,2.253,3.119,1.26,4.797L130.844,469.063z"/>
	<path style="fill:#FF9700;" d="M454.569,201.437c-1.875,0.496-3.797-0.63-4.309-2.497l0,0c-0.496-1.875,0.599-3.781,2.489-4.293
		l38.479-10.319c1.859-0.504,3.781,0.607,4.293,2.473l0,0c0.52,1.875-0.599,3.812-2.473,4.324L454.569,201.437z"/>
	<path style="fill:#FF9700;" d="M12.895,319.787c-1.875,0.496-3.797-0.622-4.293-2.489l0,0c-0.496-1.875,0.599-3.805,2.458-4.301
		l38.479-10.327c1.89-0.488,3.805,0.607,4.324,2.497l0,0c0.496,1.867-0.599,3.812-2.505,4.309L12.895,319.787z"/>
</g>
<g>
	<circle style="fill:#FFAA00;" cx="252.069" cy="83.653" r="3.994"/>
	<circle style="fill:#FFAA00;" cx="252.069" cy="420.478" r="3.994"/>
	<circle style="fill:#FFAA00;" cx="371.153" cy="132.986" r="4.001"/>
	<circle style="fill:#FFAA00;" cx="132.986" cy="371.161" r="4.001"/>
	<circle style="fill:#FFAA00;" cx="420.486" cy="252.077" r="3.994"/>
	<circle style="fill:#FFAA00;" cx="83.669" cy="252.069" r="3.994"/>
	<circle style="fill:#FFAA00;" cx="371.153" cy="371.161" r="4.001"/>
	<circle style="fill:#FFAA00;" cx="132.986" cy="132.994" r="4.001"/>
	<path style="fill:#FFAA00;" d="M171.331,104.22c1.103,1.906,0.441,4.356-1.465,5.451c-1.914,1.111-4.348,0.457-5.467-1.465
		c-1.087-1.906-0.441-4.348,1.481-5.451C167.771,101.66,170.212,102.313,171.331,104.22z"/>
	<circle style="fill:#FFAA00;" cx="336.266" cy="397.942" r="4.001"/>
	<circle style="fill:#FFAA00;" cx="295.621" cy="89.403" r="4.001"/>
	<circle style="fill:#FFAA00;" cx="208.494" cy="414.72" r="3.994"/>
	<circle style="fill:#FFAA00;" cx="397.942" cy="167.873" r="3.994"/>
	<path style="fill:#FFAA00;" d="M108.229,339.74c-1.914,1.111-4.372,0.441-5.459-1.465c-1.119-1.922-0.449-4.356,1.457-5.451
		c1.914-1.118,4.348-0.465,5.467,1.465C110.773,336.187,110.143,338.629,108.229,339.74z"/>
	<circle style="fill:#FFAA00;" cx="414.72" cy="295.7" r="4.001"/>
	<circle style="fill:#FFAA00;" cx="89.411" cy="208.486" r="3.994"/>
	<circle style="fill:#FFAA00;" cx="106.22" cy="167.857" r="3.994"/>
	<circle style="fill:#FFAA00;" cx="397.942" cy="336.266" r="3.994"/>
	<path style="fill:#FFAA00;" d="M212.354,88.371c0.567,2.119-0.701,4.309-2.828,4.892c-2.15,0.575-4.324-0.709-4.892-2.828
		c-0.599-2.135,0.685-4.324,2.828-4.884C209.566,84.968,211.771,86.237,212.354,88.371z"/>
	<path style="fill:#FFAA00;" d="M299.52,413.704c0.551,2.135-0.701,4.317-2.828,4.876c-2.135,0.583-4.324-0.67-4.892-2.804
		c-0.551-2.135,0.701-4.324,2.828-4.899C296.739,410.325,298.953,411.577,299.52,413.704z"/>
	<path style="fill:#FFAA00;" d="M339.747,108.213c-1.118,1.906-3.545,2.56-5.443,1.465c-1.93-1.111-2.591-3.545-1.465-5.451
		c1.087-1.914,3.505-2.568,5.435-1.465C340.173,103.865,340.842,106.307,339.747,108.213z"/>
	<path style="fill:#FFAA00;" d="M171.331,399.911c-1.119,1.914-3.529,2.568-5.451,1.481c-1.938-1.118-2.576-3.552-1.481-5.459
		c1.103-1.922,3.56-2.568,5.49-1.465C171.756,395.563,172.449,397.997,171.331,399.911z"/>
	<path style="fill:#FFAA00;" d="M415.791,212.346c-2.143,0.559-4.348-0.701-4.915-2.828c-0.583-2.135,0.709-4.324,2.828-4.892
		c2.135-0.567,4.324,0.693,4.907,2.836C419.17,209.573,417.91,211.763,415.791,212.346z"/>
	<circle style="fill:#FFAA00;" cx="89.411" cy="295.621" r="3.994"/>
</g>
<g>
</g>
<g>
</g>
<g>
</g>
<g>
</g>
<g>
</g>
<g>
</g>
<g>
</g>
<g>
</g>
<g>
</g>
<g>
</g>
<g>
</g>
<g>
</g>
<g>
</g>
<g>
</g>
<g>
</g>
</svg>
