<?xml version="1.0" encoding="iso-8859-1"?>
<!-- Generator: Adobe Illustrator 18.0.0, SVG Export Plug-In . SVG Version: 6.00 Build 0)  -->
<!DOCTYPE svg PUBLIC "-//W3C//DTD SVG 1.1//EN" "http://www.w3.org/Graphics/SVG/1.1/DTD/svg11.dtd">
<svg version="1.1" id="Capa_1" xmlns="http://www.w3.org/2000/svg" xmlns:xlink="http://www.w3.org/1999/xlink" x="0px" y="0px"
	 viewBox="0 0 172.726 172.726" style="enable-background:new 0 0 172.726 172.726;" xml:space="preserve">
<g>
	<path style="fill:#FDD633;" d="M170.319,88.771c1.332,0.001,2.407-1.079,2.407-2.409c0.001-1.33-1.078-2.412-2.408-2.412
		l-29.185,0.002c-0.068-1.595-0.214-3.169-0.417-4.727l28.745-5.07c1.313-0.23,2.184-1.481,1.953-2.79
		c-0.229-1.311-1.481-2.188-2.791-1.957l-28.736,5.069c-0.344-1.554-0.743-3.087-1.216-4.589l27.407-9.978
		c1.253-0.455,1.893-1.838,1.438-3.087c-0.452-1.251-1.838-1.897-3.088-1.442l-27.41,9.979c-0.609-1.468-1.286-2.899-2.016-4.299
		l25.271-14.593c1.155-0.666,1.546-2.138,0.881-3.289c-0.663-1.153-2.14-1.549-3.292-0.884l-25.274,14.595
		c-0.854-1.336-1.76-2.633-2.722-3.887l22.357-18.763c1.022-0.855,1.151-2.374,0.295-3.392c-0.853-1.021-2.376-1.154-3.394-0.299
		l-22.354,18.76c-1.07-1.167-2.19-2.286-3.356-3.356l18.758-22.357c0.856-1.02,0.721-2.537-0.299-3.392
		c-1.018-0.857-2.54-0.724-3.395,0.295l-18.759,22.359c-1.254-0.963-2.552-1.869-3.887-2.723l14.592-25.278
		c0.666-1.152,0.269-2.624-0.884-3.288c-1.15-0.667-2.626-0.271-3.292,0.88l-14.588,25.271c-1.399-0.729-2.831-1.406-4.298-2.016
		l9.975-27.413c0.458-1.251-0.19-2.631-1.439-3.084c-1.249-0.457-2.634,0.188-3.09,1.438l-9.973,27.407
		c-1.502-0.473-3.036-0.873-4.591-1.216L103.311,4.1c0.234-1.311-0.643-2.558-1.953-2.788c-1.309-0.233-2.56,0.643-2.792,1.954
		L93.5,32.009c-1.559-0.203-3.134-0.348-4.729-0.417V2.409c0-1.329-1.077-2.406-2.404-2.409v53.723c-0.002,0-0.003,0-0.005,0v65.281
		c0.002,0,0.003-0.001,0.005-0.001v53.723c1.329,0,2.407-1.079,2.41-2.409l-0.001-29.178c1.596-0.068,3.171-0.214,4.729-0.417
		l5.068,28.739c0.229,1.311,1.481,2.182,2.79,1.951c1.31-0.229,2.184-1.479,1.956-2.79l-5.066-28.729
		c1.555-0.344,3.088-0.744,4.59-1.217l9.975,27.402c0.454,1.251,1.837,1.892,3.087,1.438c1.249-0.454,1.894-1.837,1.441-3.088
		l-9.976-27.404c1.468-0.609,2.898-1.286,4.298-2.016l14.589,25.267c0.665,1.153,2.138,1.544,3.29,0.878
		c1.152-0.662,1.547-2.137,0.885-3.289l-14.592-25.271c1.336-0.854,2.633-1.76,3.887-2.723l18.759,22.355
		c0.855,1.02,2.375,1.149,3.393,0.295c1.02-0.854,1.152-2.373,0.3-3.395l-18.757-22.351c1.167-1.07,2.286-2.19,3.356-3.357
		l22.354,18.755c1.019,0.857,2.536,0.72,3.393-0.299c0.855-1.017,0.723-2.537-0.296-3.395l-22.355-18.757
		c0.962-1.254,1.868-2.552,2.722-3.888l25.274,14.591c1.152,0.669,2.624,0.269,3.289-0.884c0.666-1.149,0.273-2.625-0.88-3.292
		l-25.27-14.588c0.729-1.399,1.406-2.83,2.015-4.298l27.411,9.976c1.251,0.458,2.63-0.19,3.085-1.44
		c0.456-1.249-0.188-2.634-1.438-3.09l-27.406-9.974c0.473-1.502,0.872-3.035,1.215-4.59l28.736,5.066
		c1.313,0.233,2.559-0.644,2.789-1.954c0.232-1.31-0.643-2.562-1.953-2.794l-28.743-5.066c0.202-1.557,0.347-3.131,0.416-4.726
		L170.319,88.771z"/>
	<path style="fill:#FDD633;" d="M86.28,119.012c-0.795,0.028-1.495,0.435-1.913,1.053C84.785,119.448,85.485,119.041,86.28,119.012z
		"/>
	<path style="fill:#FDD633;" d="M84.146,120.473c0.053-0.126,0.121-0.244,0.194-0.357C84.267,120.229,84.198,120.347,84.146,120.473
		z"/>
	<path style="fill:#FDD633;" d="M83.955,121.411c0-0.235,0.045-0.457,0.108-0.672C84,120.954,83.955,121.175,83.955,121.411z"/>
	<path style="fill:#F4CA19;" d="M86.366,119.003c-0.002,0-0.003,0.001-0.005,0.001V53.723c0.002,0,0.003,0,0.005,0V0.001l0,0
		C86.364,0.001,86.363,0,86.362,0c-1.33,0-2.41,1.079-2.41,2.409v29.183c-1.596,0.069-3.171,0.214-4.729,0.417L74.155,3.267
		c-0.23-1.311-1.48-2.186-2.79-1.955c-1.309,0.231-2.186,1.48-1.955,2.791l5.066,28.734c-1.555,0.344-3.089,0.744-4.591,1.216
		L59.91,6.649c-0.454-1.252-1.838-1.896-3.088-1.441c-1.248,0.455-1.894,1.837-1.439,3.089l9.976,27.408
		c-1.468,0.609-2.898,1.286-4.299,2.016L46.472,12.454c-0.666-1.153-2.141-1.548-3.294-0.883c-1.148,0.665-1.545,2.139-0.881,3.292
		l14.592,25.272c-1.336,0.854-2.634,1.76-3.888,2.723L34.243,20.504c-0.855-1.021-2.377-1.152-3.396-0.297
		c-1.018,0.854-1.151,2.374-0.298,3.396l18.756,22.351c-1.166,1.07-2.286,2.189-3.356,3.356L23.598,30.555
		c-1.018-0.855-2.54-0.722-3.393,0.298c-0.855,1.018-0.722,2.538,0.296,3.396l22.354,18.757c-0.963,1.254-1.869,2.551-2.723,3.887
		l-25.27-14.59c-1.152-0.666-2.627-0.271-3.293,0.882c-0.664,1.15-0.268,2.625,0.882,3.293l25.268,14.587
		c-0.73,1.4-1.406,2.831-2.016,4.298L8.295,55.387c-1.249-0.455-2.633,0.19-3.088,1.441c-0.453,1.248,0.191,2.631,1.44,3.089
		l27.402,9.972c-0.473,1.503-0.872,3.037-1.216,4.592L4.102,69.415c-1.309-0.233-2.559,0.644-2.79,1.954
		c-0.23,1.309,0.643,2.557,1.954,2.791l28.739,5.066c-0.202,1.559-0.348,3.134-0.417,4.729l-29.18,0.001
		C1.079,83.955,0.001,85.036,0,86.368c0,1.328,1.079,2.404,2.408,2.409l29.18-0.001c0.069,1.596,0.215,3.171,0.417,4.729
		L3.267,98.573c-1.31,0.229-2.184,1.48-1.953,2.792c0.23,1.308,1.48,2.181,2.791,1.954l28.729-5.067
		c0.344,1.555,0.743,3.089,1.216,4.591l-27.401,9.975c-1.25,0.452-1.893,1.837-1.438,3.088c0.454,1.248,1.837,1.89,3.088,1.44
		l27.404-9.976c0.608,1.468,1.286,2.899,2.016,4.3l-25.265,14.588c-1.152,0.662-1.545,2.139-0.88,3.291
		c0.664,1.149,2.137,1.543,3.29,0.882l25.269-14.59c0.854,1.336,1.761,2.634,2.724,3.889l-22.353,18.757
		c-1.019,0.853-1.15,2.373-0.295,3.395c0.853,1.017,2.373,1.148,3.393,0.296l22.349-18.754c1.07,1.167,2.19,2.288,3.357,3.358
		l-18.754,22.351c-0.855,1.016-0.72,2.535,0.3,3.392c1.018,0.854,2.537,0.721,3.393-0.296l18.756-22.353
		c1.254,0.963,2.553,1.869,3.889,2.724l-14.59,25.271c-0.666,1.149-0.267,2.622,0.885,3.289c1.149,0.664,2.624,0.268,3.289-0.882
		l14.587-25.265c1.4,0.73,2.832,1.407,4.3,2.017l-9.975,27.405c-0.455,1.249,0.191,2.629,1.442,3.086
		c1.248,0.455,2.63-0.191,3.088-1.44l9.972-27.399c1.502,0.473,3.036,0.872,4.591,1.216l-5.065,28.731
		c-0.232,1.308,0.645,2.557,1.955,2.788c1.309,0.23,2.559-0.646,2.792-1.954l5.066-28.737c1.558,0.203,3.132,0.348,4.727,0.417
		l0.001,29.179c-0.001,1.33,1.08,2.406,2.41,2.407V119.003z M86.28,119.012c-0.796,0.029-1.495,0.436-1.913,1.053
		C84.785,119.447,85.486,119.04,86.28,119.012z M84.063,120.739c-0.063,0.215-0.108,0.437-0.108,0.672
		C83.955,121.175,84,120.954,84.063,120.739z M84.34,120.116c-0.073,0.113-0.142,0.231-0.194,0.357
		C84.198,120.347,84.267,120.229,84.34,120.116z"/>
</g>
<g>
</g>
<g>
</g>
<g>
</g>
<g>
</g>
<g>
</g>
<g>
</g>
<g>
</g>
<g>
</g>
<g>
</g>
<g>
</g>
<g>
</g>
<g>
</g>
<g>
</g>
<g>
</g>
<g>
</g>
</svg>
