<?xml version="1.0" encoding="iso-8859-1"?>
<!-- Generator: Adobe Illustrator 19.0.0, SVG Export Plug-In . SVG Version: 6.00 Build 0)  -->
<svg version="1.1" id="Layer_1" xmlns="http://www.w3.org/2000/svg" xmlns:xlink="http://www.w3.org/1999/xlink" x="0px" y="0px"
	 viewBox="0 0 512.002 512.002" style="enable-background:new 0 0 512.002 512.002;" xml:space="preserve">
<g>
	<g>
		<g>
			<path d="M255.998,120.138c-74.914,0-135.862,60.948-135.862,135.862s60.948,135.862,135.862,135.862S391.86,330.914,391.86,256
				S330.912,120.138,255.998,120.138z M255.998,376.138c-66.244,0-120.138-53.894-120.138-120.138s53.894-120.138,120.138-120.138
				S376.136,189.756,376.136,256S322.242,376.138,255.998,376.138z"/>
			<rect x="248.132" width="15.723" height="104.004"/>
			
				<rect x="204.41" y="77.295" transform="matrix(0.1737 0.9848 -0.9848 0.1737 270.5177 -152.095)" width="42.967" height="15.723"/>
			<rect x="147.778" y="97.896" transform="matrix(0.5 0.866 -0.866 0.5 176.2168 -93.7057)" width="42.967" height="15.723"/>
			
				<rect x="101.628" y="136.626" transform="matrix(-0.766 -0.6428 0.6428 -0.766 124.5386 334.3051)" width="42.966" height="15.723"/>
			
				<rect x="85.111" y="175.186" transform="matrix(0.342 -0.9397 0.9397 0.342 -123.6348 216.775)" width="15.723" height="42.968"/>
			<rect x="61.036" y="248.134" width="42.966" height="15.723"/>
			
				<rect x="71.491" y="307.47" transform="matrix(-0.9397 0.342 -0.342 -0.9397 288.1874 579.851)" width="42.968" height="15.723"/>
			
				<rect x="101.599" y="359.634" transform="matrix(-0.7661 0.6428 -0.6428 -0.7661 453.5869 569.907)" width="42.969" height="15.724"/>
			<rect x="161.387" y="384.747" transform="matrix(0.866 0.5 -0.5 0.866 225.7961 -30.199)" width="15.723" height="42.967"/>
			
				<rect x="217.994" y="405.378" transform="matrix(-0.9848 -0.1736 0.1736 -0.9848 374.1774 886.4498)" width="15.723" height="42.966"/>
			
				<rect x="264.622" y="418.964" transform="matrix(-0.1737 -0.9848 0.9848 -0.1737 -84.5358 782.7211)" width="42.966" height="15.723"/>
			<rect x="321.241" y="398.39" transform="matrix(-0.5 -0.866 0.866 -0.5 162.268 906.1877)" width="42.967" height="15.723"/>
			
				<rect x="367.381" y="359.643" transform="matrix(0.766 0.6428 -0.6428 0.766 327.2243 -163.9794)" width="42.966" height="15.723"/>
			
				<rect x="397.539" y="307.477" transform="matrix(0.9397 0.342 -0.342 0.9397 133.1127 -124.2909)" width="42.968" height="15.723"/>
			<rect x="407.996" y="248.134" width="42.966" height="15.723"/>
			
				<rect x="397.536" y="188.819" transform="matrix(0.9397 -0.342 0.342 0.9397 -41.9979 155.1646)" width="42.968" height="15.723"/>
			
				<rect x="367.429" y="136.621" transform="matrix(0.7661 -0.6428 0.6428 0.7661 -1.8874 283.7811)" width="42.969" height="15.724"/>
			<rect x="334.886" y="84.276" transform="matrix(-0.866 -0.5 0.5 -0.866 586.6924 368.7268)" width="15.723" height="42.967"/>
			<rect x="278.258" y="63.66" transform="matrix(0.9848 0.1736 -0.1736 0.9848 19.126 -48.3792)" width="15.723" height="42.966"/>
			
				<rect x="134.216" y="56.443" transform="matrix(0.342 0.9397 -0.9397 0.342 182.959 -132.6761)" width="104.004" height="15.723"/>
			
				<rect x="72.871" y="91.866" transform="matrix(0.6428 0.766 -0.766 0.6428 120.9948 -60.0334)" width="104.001" height="15.723"/>
			<rect x="27.325" y="146.135" transform="matrix(0.866 0.5 -0.5 0.866 87.6282 -19.0312)" width="104.002" height="15.723"/>
			
				<rect x="3.086" y="212.716" transform="matrix(0.9848 0.1737 -0.1737 0.9848 39.1517 -6.2158)" width="104.004" height="15.723"/>
			
				<rect x="3.111" y="283.559" transform="matrix(0.9848 -0.1737 0.1737 0.9848 -49.7819 14.0032)" width="104.004" height="15.723"/>
			<rect x="27.32" y="350.131" transform="matrix(0.866 -0.5 0.5 0.866 -168.3728 87.6254)" width="104.002" height="15.723"/>
			
				<rect x="72.853" y="404.42" transform="matrix(0.6428 -0.766 0.766 0.6428 -271.2199 242.9003)" width="104.001" height="15.723"/>
			
				<rect x="178.378" y="395.687" transform="matrix(-0.9397 -0.342 0.342 -0.9397 208.1387 932.0757)" width="15.723" height="104.004"/>
			<rect x="248.132" y="407.998" width="15.723" height="104.004"/>
			
				<rect x="273.774" y="439.845" transform="matrix(-0.342 -0.9397 0.9397 -0.342 16.4819 906.9549)" width="104.004" height="15.723"/>
			
				<rect x="335.101" y="404.425" transform="matrix(-0.6428 -0.766 0.766 -0.6428 320.1168 973.8383)" width="104.001" height="15.723"/>
			<rect x="380.676" y="350.147" transform="matrix(-0.866 -0.5 0.5 -0.866 628.3762 884.394)" width="104.002" height="15.723"/>
			
				<rect x="449.052" y="239.404" transform="matrix(0.1737 -0.9848 0.9848 0.1737 90.5708 690.757)" width="15.723" height="104.004"/>
			
				<rect x="404.887" y="212.739" transform="matrix(-0.9848 0.1737 -0.1737 -0.9848 945.1505 358.4856)" width="104.004" height="15.723"/>
			<rect x="380.671" y="146.14" transform="matrix(-0.866 0.5 -0.5 -0.866 884.3768 71.0287)" width="104.002" height="15.723"/>
			
				<rect x="335.129" y="91.848" transform="matrix(-0.6428 0.766 -0.766 -0.6428 712.3632 -132.7443)" width="104.001" height="15.723"/>
			
				<rect x="317.909" y="12.304" transform="matrix(0.9397 0.342 -0.342 0.9397 41.6369 -107.5362)" width="15.723" height="104.004"/>
		</g>
	</g>
</g>
<g>
</g>
<g>
</g>
<g>
</g>
<g>
</g>
<g>
</g>
<g>
</g>
<g>
</g>
<g>
</g>
<g>
</g>
<g>
</g>
<g>
</g>
<g>
</g>
<g>
</g>
<g>
</g>
<g>
</g>
</svg>
